<svg width="99" height="99" viewBox="0 0 99 99" fill="none" xmlns="http://www.w3.org/2000/svg">
<path d="M3.7522 34.354C8.43188 35.6889 13.1103 37.0237 17.79 38.3586L3.7522 34.354Z" fill="#E8EC91"/>
<path d="M3.7522 34.354C8.43188 35.6889 13.1103 37.0237 17.79 38.3586" stroke="#E8EC91" stroke-width="3.06865" stroke-miterlimit="10" stroke-linecap="round"/>
<path d="M1.53442 45.1487C7.71519 45.4786 13.8959 45.8084 20.0767 46.1383L1.53442 45.1487Z" fill="#E8EC91"/>
<path d="M1.53442 45.1487C7.71519 45.4786 13.8959 45.8084 20.0767 46.1383" stroke="#E8EC91" stroke-width="3.06865" stroke-miterlimit="10" stroke-linecap="round"/>
<path d="M1.98901 56.2472C9.10572 54.9418 16.2224 53.635 23.3391 52.3296L1.98901 56.2472Z" fill="#E8EC91"/>
<path d="M1.98901 56.2472C9.10572 54.9418 16.2224 53.635 23.3391 52.3296" stroke="#E8EC91" stroke-width="3.06865" stroke-miterlimit="10" stroke-linecap="round"/>
<path d="M4.9939 66.957C12.2845 63.8014 19.5751 60.6458 26.8657 57.4902L4.9939 66.957Z" fill="#E8EC91"/>
<path d="M4.9939 66.957C12.2845 63.8014 19.5751 60.6458 26.8657 57.4902" stroke="#E8EC91" stroke-width="3.06865" stroke-miterlimit="10" stroke-linecap="round"/>
<path d="M10.3481 76.7488C17.1171 71.7866 23.8847 66.8243 30.6536 61.8621L10.3481 76.7488Z" fill="#E8EC91"/>
<path d="M10.3481 76.7488C17.1171 71.7866 23.8847 66.8243 30.6536 61.8621" stroke="#E8EC91" stroke-width="3.06865" stroke-miterlimit="10" stroke-linecap="round"/>
<path d="M17.9236 84.9767C23.3423 78.5785 28.7623 72.1791 34.181 65.781L17.9236 84.9767Z" fill="#E8EC91"/>
<path d="M17.9236 84.9767C23.3423 78.5785 28.7623 72.1791 34.181 65.781" stroke="#E8EC91" stroke-width="3.06865" stroke-miterlimit="10" stroke-linecap="round"/>
<path d="M27.2588 91.3089C30.9156 83.9748 34.5711 76.6408 38.2279 69.3054L27.2588 91.3089Z" fill="#E8EC91"/>
<path d="M27.2588 91.3089C30.9156 83.9748 34.5711 76.6408 38.2279 69.3054" stroke="#E8EC91" stroke-width="3.06865" stroke-miterlimit="10" stroke-linecap="round"/>
<path d="M37.8357 95.2263L43.1892 72.8315L37.8357 95.2263Z" fill="#E8EC91"/>
<path d="M37.8357 95.2263L43.1892 72.8315" stroke="#E8EC91" stroke-width="3.06865" stroke-miterlimit="10" stroke-linecap="round"/>
<path d="M49.0659 96.5328V76.1621V96.5328Z" fill="#E8EC91"/>
<path d="M49.0659 96.5328V76.1621" stroke="#E8EC91" stroke-width="3.06865" stroke-miterlimit="10" stroke-linecap="round"/>
<path d="M60.2296 95.2256C59.0111 89.8504 57.7925 84.4739 56.5728 79.0986L60.2296 95.2256Z" fill="#E8EC91"/>
<path d="M60.2296 95.2256C59.0111 89.8504 57.7925 84.4739 56.5728 79.0986" stroke="#E8EC91" stroke-width="3.06865" stroke-miterlimit="10" stroke-linecap="round"/>
<path d="M70.8069 91.3095C68.9785 87.6424 67.1501 83.9754 65.323 80.3083L70.8069 91.3095Z" fill="#E8EC91"/>
<path d="M70.8069 91.3095C68.9785 87.6424 67.1501 83.9754 65.323 80.3083" stroke="#E8EC91" stroke-width="3.06865" stroke-miterlimit="10" stroke-linecap="round"/>
<path d="M80.2024 84.975C78.2653 82.6684 76.3282 80.3606 74.3911 78.054L80.2024 84.975Z" fill="#E8EC91"/>
<path d="M80.2024 84.975C78.2653 82.6684 76.3282 80.3606 74.3911 78.054" stroke="#E8EC91" stroke-width="3.06865" stroke-miterlimit="10" stroke-linecap="round"/>
<path d="M80.2097 71.2642C82.7119 73.0926 85.2154 74.921 87.7177 76.7481L80.2097 71.2642Z" fill="#E8EC91"/>
<path d="M80.2097 71.2642C82.7119 73.0926 85.2154 74.921 87.7177 76.7481" stroke="#E8EC91" stroke-width="3.06865" stroke-miterlimit="10" stroke-linecap="round"/>
<path d="M81.4465 61.7986C85.3642 63.5183 89.2818 65.2367 93.1982 66.9565L81.4465 61.7986Z" fill="#E8EC91"/>
<path d="M81.4465 61.7986C85.3642 63.5183 89.2818 65.2367 93.1982 66.9565" stroke="#E8EC91" stroke-width="3.06865" stroke-miterlimit="10" stroke-linecap="round"/>
<path d="M79.7534 53.3091C85.1939 54.2885 90.6356 55.2679 96.0761 56.2473L79.7534 53.3091Z" fill="#E8EC91"/>
<path d="M79.7534 53.3091C85.1939 54.2885 90.6356 55.2679 96.0761 56.2473" stroke="#E8EC91" stroke-width="3.06865" stroke-miterlimit="10" stroke-linecap="round"/>
<path d="M76.2942 46.1281C83.0414 45.802 89.7873 45.4747 96.5345 45.1487L76.2942 46.1281Z" fill="#E8EC91"/>
<path d="M76.2942 46.1281C83.0414 45.802 89.7873 45.4747 96.5345 45.1487" stroke="#E8EC91" stroke-width="3.06865" stroke-miterlimit="10" stroke-linecap="round"/>
<path d="M73.0923 40.9048C80.209 38.7286 87.3257 36.5524 94.4424 34.3762L73.0923 40.9048Z" fill="#E8EC91"/>
<path d="M73.0923 40.9048C80.209 38.7286 87.3257 36.5524 94.4424 34.3762" stroke="#E8EC91" stroke-width="3.06865" stroke-miterlimit="10" stroke-linecap="round"/>
<path d="M69.5662 36.0724C76.3133 32.1548 83.0592 28.2372 89.8064 24.3208L69.5662 36.0724Z" fill="#E8EC91"/>
<path d="M69.5662 36.0724C76.3133 32.1548 83.0592 28.2372 89.8064 24.3208" stroke="#E8EC91" stroke-width="3.06865" stroke-miterlimit="10" stroke-linecap="round"/>
<path d="M65.8477 31.9601C71.6154 26.5196 77.3819 21.0779 83.1497 15.6375L65.8477 31.9601Z" fill="#E8EC91"/>
<path d="M65.8477 31.9601C71.6154 26.5196 77.3819 21.0779 83.1497 15.6375" stroke="#E8EC91" stroke-width="3.06865" stroke-miterlimit="10" stroke-linecap="round"/>
<path d="M62.0544 28.3039C66.2981 21.7971 70.5418 15.289 74.7855 8.78223L62.0544 28.3039Z" fill="#E8EC91"/>
<path d="M62.0544 28.3039C66.2981 21.7971 70.5418 15.289 74.7855 8.78223" stroke="#E8EC91" stroke-width="3.06865" stroke-miterlimit="10" stroke-linecap="round"/>
<path d="M57.4854 24.7129C59.9658 17.8135 62.4476 10.9155 64.9281 4.01611L57.4854 24.7129Z" fill="#E8EC91"/>
<path d="M57.4854 24.7129C59.9658 17.8135 62.4476 10.9155 64.9281 4.01611" stroke="#E8EC91" stroke-width="3.06865" stroke-miterlimit="10" stroke-linecap="round"/>
<path d="M52.3296 21.3822C53.0264 14.7667 53.722 8.14991 54.4188 1.53442L52.3296 21.3822Z" fill="#E8EC91"/>
<path d="M52.3296 21.3822C53.0264 14.7667 53.722 8.14991 54.4188 1.53442" stroke="#E8EC91" stroke-width="3.06865" stroke-miterlimit="10" stroke-linecap="round"/>
<path d="M45.734 18.0527C45.0155 12.547 44.2982 7.04009 43.5796 1.53442L45.734 18.0527Z" fill="#E8EC91"/>
<path d="M45.734 18.0527C45.0155 12.547 44.2982 7.04009 43.5796 1.53442" stroke="#E8EC91" stroke-width="3.06865" stroke-miterlimit="10" stroke-linecap="round"/>
<path d="M37.251 15.8994C35.8586 11.9383 34.4649 7.97722 33.0725 4.01611L37.251 15.8994Z" fill="#E8EC91"/>
<path d="M37.251 15.8994C35.8586 11.9383 34.4649 7.97722 33.0725 4.01611" stroke="#E8EC91" stroke-width="3.06865" stroke-miterlimit="10" stroke-linecap="round"/>
<path d="M28.1134 15.9437L23.3225 8.78223L28.1134 15.9437Z" fill="#E8EC91"/>
<path d="M28.1134 15.9437L23.3225 8.78223" stroke="#E8EC91" stroke-width="3.06865" stroke-miterlimit="10" stroke-linecap="round"/>
<path d="M20.1753 20.803C18.3686 19.1024 16.562 17.4019 14.7566 15.7026L20.1753 20.803Z" fill="#E8EC91"/>
<path d="M20.1753 20.803C18.3686 19.1024 16.562 17.4019 14.7566 15.7026" stroke="#E8EC91" stroke-width="3.06865" stroke-miterlimit="10" stroke-linecap="round"/>
<path d="M16.678 29.315C13.8817 27.6503 11.0854 25.9855 8.28784 24.3208L16.678 29.315Z" fill="#E8EC91"/>
<path d="M16.678 29.315C13.8817 27.6503 11.0854 25.9855 8.28784 24.3208" stroke="#E8EC91" stroke-width="3.06865" stroke-miterlimit="10" stroke-linecap="round"/>
</svg>
