<svg width="386" height="110" viewBox="0 0 386 110" fill="none" xmlns="http://www.w3.org/2000/svg">
<path d="M191.631 28.1658C194.198 28.898 196.764 29.6303 199.331 30.3625L191.631 28.1658Z" fill="#FCEED0"/>
<path d="M191.861 27.3559L199.563 29.5529C200.009 29.6806 200.268 30.1462 200.14 30.5931C200.013 31.0401 199.547 31.2996 199.1 31.1721C197.817 30.806 196.533 30.4398 195.25 30.0736L191.4 28.9752L191.241 28.9116C190.894 28.7308 190.71 28.3259 190.821 27.935C190.933 27.5437 191.304 27.2955 191.694 27.3254L191.861 27.3559Z" fill="#FCEED0"/>
<path d="M190.414 34.0874C193.804 34.2684 197.195 34.4493 200.585 34.6303L190.414 34.0874Z" fill="#FCEED0"/>
<path d="M200.63 33.7893L200.798 33.8158C201.177 33.9145 201.447 34.2695 201.425 34.6757C201.403 35.0815 201.098 35.4048 200.711 35.4628L200.54 35.4708L190.369 34.9275L190.2 34.9023C189.821 34.8036 189.552 34.4486 189.573 34.0424C189.598 33.5783 189.995 33.2225 190.459 33.2473L200.63 33.7893Z" fill="#FCEED0"/>
<path d="M190.664 40.1759C194.568 39.4598 198.472 38.743 202.376 38.0269L190.664 40.1759Z" fill="#FCEED0"/>
<path d="M202.393 37.1855C202.785 37.1934 203.129 37.4748 203.203 37.8746C203.287 38.3318 202.984 38.7713 202.527 38.8551L190.816 41.0044C190.359 41.0883 189.919 40.7845 189.836 40.3273C189.752 39.8705 190.055 39.4321 190.511 39.3481L196.368 38.2734C198.32 37.9152 200.272 37.5568 202.224 37.1988L202.393 37.1855Z" fill="#FCEED0"/>
<path d="M192.311 46.049C196.311 44.318 200.31 42.587 204.309 40.856L192.311 46.049Z" fill="#FCEED0"/>
<path d="M203.975 40.0833C204.402 39.8987 204.897 40.0953 205.081 40.5219C205.266 40.9484 205.071 41.4436 204.644 41.6283C202.645 42.4937 200.645 43.3588 198.646 44.2242C196.646 45.0897 194.645 45.9558 192.646 46.8213C192.219 47.0057 191.724 46.8092 191.539 46.3827C191.355 45.9562 191.551 45.4608 191.978 45.2763C193.977 44.4108 195.977 43.5459 197.976 42.6804C199.976 41.815 201.975 40.9488 203.975 40.0833Z" fill="#FCEED0"/>
<path d="M195.248 51.4218C198.961 48.6998 202.674 45.9777 206.387 43.2556L195.248 51.4218Z" fill="#FCEED0"/>
<path d="M205.89 42.5772C206.265 42.3028 206.79 42.3832 207.065 42.7574C207.34 43.1322 207.26 43.6592 206.885 43.9341C205.029 45.2951 203.172 46.657 201.316 48.018C199.46 49.3789 197.603 50.7396 195.747 52.1005C195.372 52.3754 194.845 52.2939 194.57 51.919C194.295 51.5444 194.376 51.0186 194.75 50.7437C196.607 49.3827 198.463 48.0208 200.319 46.6598C202.176 45.2988 204.033 43.9383 205.89 42.5772Z" fill="#FCEED0"/>
<path d="M199.404 55.9349C202.376 52.4252 205.349 48.9147 208.322 45.405L199.404 55.9349Z" fill="#FCEED0"/>
<path d="M207.68 44.8608C207.981 44.5067 208.512 44.4625 208.866 44.7627C209.221 45.0631 209.265 45.5953 208.964 45.95L200.047 56.479L199.923 56.5969C199.616 56.839 199.17 56.84 198.859 56.5771C198.505 56.2766 198.461 55.7456 198.761 55.3911L203.22 50.1266C204.707 48.3716 206.194 46.6156 207.68 44.8608Z" fill="#FCEED0"/>
<path d="M204.525 59.4085C206.531 55.3853 208.536 51.3622 210.542 47.3384L204.525 59.4085Z" fill="#FCEED0"/>
<path d="M209.79 46.963C209.997 46.5471 210.501 46.3781 210.917 46.5854C211.333 46.7927 211.502 47.297 211.295 47.713C209.289 51.7367 207.284 55.76 205.278 59.7831C205.071 60.199 204.566 60.368 204.15 60.1608C203.734 59.9534 203.565 59.4491 203.773 59.0331C205.779 55.0101 207.784 50.9869 209.79 46.963Z" fill="#FCEED0"/>
<path d="M210.327 61.5562L213.264 49.2715L210.327 61.5562Z" fill="#FCEED0"/>
<path d="M213.459 48.4527C213.912 48.5608 214.19 49.0156 214.082 49.4677L211.146 61.7525C211.038 62.2043 210.583 62.4833 210.131 62.3752C209.679 62.267 209.4 61.8122 209.508 61.3602L212.444 49.0755C212.553 48.6235 213.007 48.3446 213.459 48.4527Z" fill="#FCEED0"/>
<path d="M215.646 62.2746V51.1002C215.646 50.6354 216.023 50.2588 216.488 50.2588C216.953 50.2588 217.329 50.6354 217.329 51.1002V62.2746C217.329 62.7394 216.953 63.116 216.488 63.116C216.023 63.116 215.646 62.7394 215.646 62.2746Z" fill="#FCEED0"/>
<path d="M222.612 61.558C221.943 58.6094 221.275 55.66 220.606 52.7114L222.612 61.558Z" fill="#FCEED0"/>
<path d="M220.419 51.8912C220.815 51.8012 221.212 52.0065 221.373 52.363L221.426 52.5246L223.432 61.3721C223.535 61.8254 223.251 62.2764 222.797 62.3792C222.344 62.4817 221.893 62.1975 221.79 61.7445L219.786 52.8983L219.764 52.7287C219.756 52.3374 220.023 51.9815 220.419 51.8912Z" fill="#FCEED0"/>
<path d="M228.414 59.4087C227.411 57.3972 226.408 55.3856 225.406 53.374L228.414 59.4087Z" fill="#FCEED0"/>
<path d="M229.168 59.0335C229.375 59.4494 229.206 59.9551 228.79 60.1625C228.374 60.3698 227.869 60.2005 227.661 59.7848L229.168 59.0335ZM225.031 52.6201C225.395 52.4391 225.827 52.5464 226.068 52.8547L226.16 52.9991L229.168 59.0335L228.414 59.4085L227.661 59.7848L224.652 53.7491L224.592 53.5901C224.491 53.2118 224.667 52.8015 225.031 52.6201Z" fill="#FCEED0"/>
<path d="M233.567 55.9343C232.505 54.669 231.442 53.403 230.38 52.1377L233.567 55.9343Z" fill="#FCEED0"/>
<path d="M229.839 51.4934C230.151 51.2319 230.595 51.2343 230.902 51.4775L231.024 51.5967L232.618 53.4942C233.149 54.1271 233.681 54.7605 234.212 55.3931C234.511 55.749 234.465 56.2801 234.109 56.579C233.753 56.8775 233.221 56.8314 232.923 56.4756L229.736 52.678L229.639 52.5375C229.453 52.1934 229.528 51.7549 229.839 51.4934Z" fill="#FCEED0"/>
<path d="M233.572 48.4143C234.944 49.4173 236.317 50.4203 237.69 51.4225L233.572 48.4143Z" fill="#FCEED0"/>
<path d="M232.892 47.917C233.132 47.5886 233.565 47.485 233.921 47.648L234.068 47.7341L238.187 50.7421C238.562 51.0162 238.644 51.5434 238.37 51.9187C238.095 52.2939 237.569 52.3754 237.194 52.1016L233.075 49.0937L232.949 48.9797C232.685 48.6901 232.652 48.2456 232.892 47.917Z" fill="#FCEED0"/>
<path d="M234.25 43.22C236.4 44.1633 238.549 45.106 240.697 46.0493L234.25 43.22Z" fill="#FCEED0"/>
<path d="M234.427 42.3966L234.588 42.4483L241.035 45.2787C241.46 45.4656 241.655 45.9621 241.468 46.3878C241.281 46.8131 240.784 47.0062 240.359 46.8197L233.913 43.9907L233.764 43.9059C233.445 43.68 233.316 43.2539 233.479 42.8816C233.643 42.5091 234.044 42.3142 234.427 42.3966Z" fill="#FCEED0"/>
<path d="M233.321 38.5649C236.306 39.1022 239.291 39.6395 242.275 40.1767L233.321 38.5649Z" fill="#FCEED0"/>
<path d="M233.471 37.7369L237.947 38.5425C239.439 38.8112 240.932 39.0795 242.424 39.3482L242.587 39.3959C242.951 39.541 243.175 39.9256 243.103 40.3261C243.02 40.7834 242.584 41.0867 242.126 41.0045L233.171 39.3932L233.008 39.3468C232.645 39.2018 232.421 38.8158 232.493 38.4153C232.565 38.0155 232.909 37.7331 233.3 37.7236L233.471 37.7369Z" fill="#FCEED0"/>
<path d="M231.424 34.6247C235.125 34.4458 238.826 34.2663 242.527 34.0874L231.424 34.6247Z" fill="#FCEED0"/>
<path d="M242.657 33.2553C243.043 33.3152 243.348 33.6403 243.368 34.0463C243.388 34.4525 243.115 34.8054 242.736 34.9023L242.568 34.9275C240.717 35.0169 238.866 35.1069 237.016 35.1965C235.166 35.2861 233.316 35.3761 231.465 35.4655L231.294 35.4562C230.907 35.3962 230.604 35.0713 230.584 34.6651C230.562 34.2011 230.919 33.8066 231.383 33.784L236.935 33.515C238.785 33.4254 240.635 33.3367 242.486 33.2473L242.657 33.2553Z" fill="#FCEED0"/>
<path d="M229.667 31.759C233.571 30.5652 237.475 29.3715 241.379 28.1777L229.667 31.759Z" fill="#FCEED0"/>
<path d="M241.3 27.3394C241.69 27.3024 242.065 27.543 242.184 27.9317C242.32 28.3763 242.069 28.8466 241.625 28.9825L235.769 30.774C233.817 31.3709 231.865 31.9674 229.914 32.5642L229.747 32.5973C229.357 32.6347 228.982 32.3942 228.863 32.005C228.727 31.5607 228.976 31.0902 229.421 30.9542L235.278 29.1641C237.229 28.5672 239.181 27.9707 241.133 27.3739L241.3 27.3394Z" fill="#FCEED0"/>
<path d="M227.733 29.1092C231.435 26.9602 235.135 24.8112 238.836 22.6628L227.733 29.1092Z" fill="#FCEED0"/>
<path d="M238.414 21.9352C238.816 21.702 239.33 21.8383 239.564 22.24C239.797 22.6419 239.661 23.1567 239.259 23.3902C235.558 25.5384 231.857 27.6876 228.156 29.8366C227.754 30.07 227.24 29.9336 227.006 29.5319C226.773 29.13 226.909 28.6152 227.311 28.3817C231.012 26.2328 234.713 24.0835 238.414 21.9352Z" fill="#FCEED0"/>
<path d="M225.694 26.8516C228.858 23.8672 232.021 20.8821 235.185 17.8977L225.694 26.8516Z" fill="#FCEED0"/>
<path d="M234.607 17.2859C234.945 16.967 235.478 16.9822 235.797 17.3204C236.116 17.6584 236.101 18.1913 235.763 18.5103C234.181 20.0024 232.598 21.4953 231.016 22.9877C229.435 24.4798 227.853 25.9718 226.271 27.4638C225.933 27.7828 225.4 27.7675 225.081 27.4293C224.762 27.0912 224.778 26.5584 225.116 26.2394C226.698 24.7475 228.279 23.2555 229.861 21.7633C231.443 20.271 233.025 18.7781 234.607 17.2859Z" fill="#FCEED0"/>
<path d="M223.613 24.8459C225.94 21.2766 228.268 17.7065 230.596 14.1372L223.613 24.8459Z" fill="#FCEED0"/>
<path d="M229.891 13.6777C230.145 13.2884 230.666 13.1789 231.056 13.4325C231.445 13.6865 231.555 14.2079 231.301 14.5973L224.318 25.3065C224.064 25.6955 223.542 25.8053 223.153 25.5517C222.764 25.2978 222.654 24.7762 222.908 24.3869L229.891 13.6777Z" fill="#FCEED0"/>
<path d="M221.106 22.8762C222.466 19.0916 223.828 15.3076 225.188 11.5229L221.106 22.8762Z" fill="#FCEED0"/>
<path d="M224.396 11.2379C224.553 10.8006 225.036 10.5733 225.473 10.7304C225.911 10.8877 226.138 11.3703 225.981 11.8077C225.3 13.7001 224.619 15.5922 223.939 17.4843C223.258 19.3765 222.579 21.2687 221.898 23.161C221.741 23.5984 221.258 23.8257 220.821 23.6685C220.384 23.5112 220.156 23.0286 220.314 22.5912C220.994 20.6988 221.675 18.8067 222.355 16.9146C223.036 15.0225 223.716 13.1302 224.396 11.2379Z" fill="#FCEED0"/>
<path d="M218.278 21.0494C218.66 17.4205 219.042 13.7908 219.424 10.1619L218.278 21.0494Z" fill="#FCEED0"/>
<path d="M219.512 9.32445C219.974 9.37315 220.31 9.7884 220.262 10.2507C220.07 12.0649 219.879 13.8796 219.688 15.6941C219.497 17.5086 219.306 19.3231 219.115 21.1375L219.08 21.3044C218.961 21.6776 218.594 21.9288 218.189 21.8862C217.727 21.8371 217.392 21.4233 217.44 20.9613L218.014 15.5178C218.205 13.7032 218.396 11.8876 218.587 10.0731C218.636 9.61135 219.05 9.27615 219.512 9.32445Z" fill="#FCEED0"/>
<path d="M214.66 19.223C214.266 16.2029 213.872 13.182 213.478 10.1619L214.66 19.223Z" fill="#FCEED0"/>
<path d="M213.369 9.32695C213.773 9.27445 214.146 9.51719 214.273 9.88745L214.313 10.0531L215.495 19.1139L215.5 19.2849C215.472 19.6751 215.172 20.0048 214.769 20.0574C214.365 20.11 213.991 19.8682 213.864 19.4982L213.825 19.3313L212.643 10.2704L212.638 10.1008C212.666 9.71008 212.966 9.37961 213.369 9.32695Z" fill="#FCEED0"/>
<path d="M210.006 18.0416C209.242 15.8687 208.478 13.6958 207.714 11.5229L210.006 18.0416Z" fill="#FCEED0"/>
<path d="M207.434 10.7293C207.818 10.5944 208.235 10.7537 208.436 11.0897L208.507 11.2435L210.8 17.7628C210.954 18.2013 210.723 18.682 210.284 18.8361C209.846 18.9898 209.366 18.759 209.212 18.3207C208.83 17.2343 208.448 16.1474 208.066 15.061L206.92 11.8026L206.879 11.637C206.826 11.2492 207.051 10.8644 207.434 10.7293Z" fill="#FCEED0"/>
<path d="M204.994 18.0657L202.366 14.1372L204.994 18.0657Z" fill="#FCEED0"/>
<path d="M201.898 13.4379C202.236 13.2118 202.678 13.2633 202.957 13.5386L203.066 13.6698L205.693 17.5986L205.774 17.7483C205.922 18.1107 205.8 18.5398 205.463 18.766C205.124 18.9922 204.681 18.9407 204.403 18.6653L204.294 18.5341L201.666 14.6053L201.587 14.4555C201.438 14.093 201.56 13.6641 201.898 13.4379Z" fill="#FCEED0"/>
<path d="M200.639 20.7326C199.648 19.7998 198.657 18.867 197.667 17.9348L200.639 20.7326Z" fill="#FCEED0"/>
<path d="M201.217 20.12C201.555 20.4387 201.571 20.9716 201.253 21.3099C200.934 21.6484 200.401 21.6642 200.063 21.3457L201.217 20.12ZM197.053 17.3586C197.332 17.0625 197.775 17.0126 198.108 17.2181L198.243 17.3215L201.217 20.12L200.639 20.7322L200.063 21.3457L197.091 18.5485L196.978 18.4186C196.753 18.0989 196.775 17.6546 197.053 17.3586Z" fill="#FCEED0"/>
<path d="M198.721 25.4024C197.187 24.4892 195.653 23.576 194.119 22.6628L198.721 25.4024Z" fill="#FCEED0"/>
<path d="M193.395 22.2322C193.603 21.8827 194.025 21.7392 194.394 21.8678L194.549 21.9393L199.151 24.6796L199.289 24.7803C199.578 25.0438 199.652 25.483 199.444 25.8324C199.236 26.1818 198.815 26.3268 198.445 26.1981L198.29 26.1252L193.688 23.3863L193.552 23.2843C193.262 23.0207 193.187 22.5817 193.395 22.2322Z" fill="#FCEED0"/>
<path d="M371.382 23.7161C373.59 23.7161 375.73 24.1795 377.801 25.1063C379.9 26.0331 381.618 27.5051 382.953 29.5223C384.316 31.5122 384.998 34.1154 384.998 37.332V58.267H377.801V38.7222C377.801 35.3966 377.024 32.9842 375.471 31.4849C373.917 29.9584 371.913 29.1952 369.46 29.1952C367.852 29.1952 366.298 29.6586 364.799 30.5854C363.327 31.4849 362.114 32.7388 361.16 34.3471C360.205 35.9282 359.728 37.7273 359.728 39.7444V58.267H352.614V24.6974H359.728V30.6671C359.974 29.7403 360.642 28.7317 361.732 27.6414C362.822 26.551 364.213 25.6242 365.903 24.8609C367.593 24.0977 369.419 23.7161 371.382 23.7161Z" fill="#FCEED0"/>
<path d="M384.997 37.3326C384.997 34.3171 384.398 31.8403 383.2 29.9029L382.953 29.5226C381.617 27.5054 379.9 26.0329 377.801 25.1061C375.859 24.2375 373.857 23.7758 371.796 23.7214L371.382 23.7161C369.42 23.7161 367.593 24.0978 365.903 24.861L365.283 25.1551C363.87 25.8587 362.686 26.687 361.732 27.641L361.343 28.0465C360.482 28.9827 359.943 29.8564 359.728 30.6674V24.698H352.614V58.2674H359.728V39.7442C359.728 37.8535 360.147 36.1542 360.986 34.6466L361.159 34.3472C362.054 32.8394 363.177 31.6437 364.526 30.7589L364.799 30.5853C366.298 29.6588 367.852 29.1954 369.459 29.1953L369.915 29.2046C372.162 29.2941 374.014 30.0542 375.47 31.485C377.024 32.9843 377.801 35.397 377.801 38.7226V58.2674H384.997V37.3326ZM360.731 27.2368C360.826 27.1362 360.922 27.0338 361.023 26.9334L361.484 26.4948C362.593 25.4963 363.934 24.6508 365.49 23.948L365.834 23.7983C367.564 23.0733 369.417 22.7144 371.382 22.7144C373.733 22.7144 376.01 23.2081 378.205 24.1892H378.206C380.486 25.1956 382.345 26.7945 383.78 28.9555L384.054 29.3768C385.376 31.5149 386 34.1898 386 37.3326V59.2692H376.799V38.7226C376.799 35.5245 376.048 33.4352 374.774 32.2059L374.768 32.1992C373.426 30.8811 371.686 30.197 369.459 30.197C368.055 30.1971 366.682 30.5988 365.325 31.4373L365.321 31.44C364 32.2472 362.9 33.3789 362.022 34.8587L362.018 34.8653C361.167 36.2757 360.731 37.8923 360.731 39.7442V59.2692H351.612V23.6949H360.731V27.2368Z" fill="#FCEED0"/>
<path d="M327.103 59.2484C323.641 59.2484 320.561 58.4715 317.862 56.9177C315.191 55.3639 313.092 53.265 311.565 50.6208C310.039 47.9494 309.276 44.9373 309.276 41.5844C309.276 38.2316 310.039 35.2058 311.565 32.5071C313.092 29.8085 315.191 27.6686 317.862 26.0876C320.561 24.5066 323.641 23.7161 327.103 23.7161C330.538 23.7161 333.577 24.5066 336.221 26.0876C338.893 27.6686 340.978 29.8085 342.477 32.5071C343.977 35.2058 344.726 38.2316 344.726 41.5844C344.726 44.9373 343.977 47.9494 342.477 50.6208C340.978 53.265 338.893 55.3639 336.221 56.9177C333.577 58.4715 330.538 59.2484 327.103 59.2484ZM327.103 53.156C329.284 53.156 331.178 52.6517 332.787 51.6431C334.422 50.6345 335.69 49.2579 336.589 47.5133C337.489 45.7415 337.939 43.7515 337.939 41.5435C337.939 39.3356 337.489 37.3456 336.589 35.5738C335.69 33.802 334.422 32.3981 332.787 31.3623C331.178 30.3264 329.284 29.8085 327.103 29.8085C324.895 29.8085 322.973 30.3264 321.338 31.3623C319.702 32.3981 318.421 33.802 317.494 35.5738C316.595 37.3456 316.145 39.3356 316.145 41.5435C316.145 43.7515 316.595 45.7415 317.494 47.5133C318.421 49.2579 319.702 50.6345 321.338 51.6431C322.973 52.6517 324.895 53.156 327.103 53.156Z" fill="#FCEED0"/>
<path d="M344.727 41.5847C344.727 38.4414 344.067 35.5852 342.75 33.0168L342.477 32.5067C340.978 29.8083 338.892 27.6689 336.221 26.088C333.742 24.6057 330.916 23.8179 327.742 23.7254L327.103 23.7161C323.641 23.7161 320.561 24.507 317.862 26.088C315.191 27.6689 313.092 29.8083 311.565 32.5067L311.288 33.0168C309.947 35.5852 309.276 38.4413 309.276 41.5847L309.285 42.2088C309.374 45.3122 310.134 48.116 311.565 50.6204C313.092 53.2644 315.191 55.3634 317.862 56.9172C320.392 58.3737 323.257 59.1476 326.458 59.2387L327.103 59.248C330.538 59.248 333.577 58.4709 336.221 56.9172C338.725 55.4606 340.715 53.5255 342.189 51.1107L342.477 50.6204C343.882 48.1159 344.63 45.3123 344.717 42.2088L344.727 41.5847ZM336.937 41.5437C336.937 39.6049 336.567 37.874 335.845 36.3335L335.696 36.0274C334.876 34.4118 333.729 33.1453 332.25 32.2085L332.245 32.2045C330.82 31.2869 329.119 30.8106 327.103 30.8106C325.186 30.8106 323.545 31.2306 322.15 32.0416L321.874 32.2085C320.393 33.1468 319.231 34.4171 318.383 36.038C317.566 37.6517 317.147 39.48 317.147 41.5437C317.147 43.6096 317.567 45.4396 318.386 47.0546C319.231 48.6411 320.388 49.8798 321.864 50.79L322.139 50.953C323.536 51.7437 325.181 52.1535 327.103 52.1535V53.1566L326.692 53.15C324.792 53.0948 323.11 52.6536 321.648 51.8262L321.338 51.6434C319.702 50.6348 318.421 49.2577 317.494 47.5131C316.651 45.8519 316.203 43.9989 316.15 41.9544L316.145 41.5437C316.145 39.3359 316.594 37.3459 317.494 35.5742C318.363 33.9129 319.544 32.5748 321.036 31.5605L321.338 31.3618C322.973 30.326 324.895 29.8088 327.103 29.8088L327.509 29.8141C329.519 29.8748 331.279 30.3908 332.786 31.3618C334.422 32.3976 335.69 33.8024 336.589 35.5742C337.489 37.346 337.938 39.3358 337.938 41.5437L337.933 41.9544C337.88 43.999 337.433 45.8519 336.589 47.5131C335.69 49.2577 334.422 50.6348 332.786 51.6434C331.178 52.6518 329.284 53.1566 327.103 53.1566V52.1535C329.124 52.1535 330.828 51.6882 332.254 50.794L332.26 50.79L332.533 50.6151C333.879 49.7228 334.932 48.5417 335.699 47.0546C336.518 45.4397 336.937 43.6095 336.937 41.5437ZM345.728 41.5847C345.728 45.0926 344.942 48.277 343.351 51.112L343.349 51.1147C341.761 53.9149 339.548 56.1398 336.727 57.7811L336.729 57.7824C333.913 59.4369 330.694 60.251 327.103 60.251C323.486 60.251 320.23 59.4371 317.363 57.7864L317.359 57.7838C314.538 56.1433 312.313 53.9199 310.697 51.1226L310.695 51.1186C309.074 48.2825 308.274 45.0958 308.274 41.5847C308.274 38.0734 309.075 34.875 310.694 32.0137L311.002 31.4863C312.586 28.8815 314.706 26.7913 317.352 25.2254L317.356 25.2227L317.898 24.918C320.633 23.4422 323.709 22.7144 327.103 22.7144C330.696 22.7144 333.915 23.5427 336.731 25.2254L337.255 25.546C339.83 27.1827 341.867 29.344 343.354 32.0203L343.641 32.561C345.037 35.2816 345.728 38.2959 345.728 41.5847Z" fill="#FCEED0"/>
<path d="M293.575 58.2684V24.6987H300.69V58.2684H293.575ZM297.214 13.209C295.933 13.209 294.829 12.7592 293.902 11.8596C293.003 10.9328 292.553 9.82884 292.553 8.54766C292.553 7.26648 293.003 6.16249 293.902 5.23568C294.829 4.30887 295.933 3.84546 297.214 3.84546C298.059 3.84546 298.836 4.06353 299.545 4.49968C300.281 4.93583 300.867 5.50827 301.303 6.21701C301.739 6.89849 301.957 7.67537 301.957 8.54766C301.957 9.82884 301.494 10.9328 300.567 11.8596C299.64 12.7592 298.522 13.209 297.214 13.209Z" fill="#FCEED0"/>
<path d="M300.69 24.698H293.574V58.2687H300.69V24.698ZM301.957 8.54795C301.957 7.67587 301.74 6.8985 301.304 6.21714C300.868 5.50856 300.281 4.93596 299.545 4.49985C298.925 4.11834 298.253 3.90365 297.528 3.85586L297.214 3.84526C295.933 3.84526 294.829 4.30845 293.902 5.23526C293.002 6.16206 292.553 7.26681 292.553 8.54795L292.558 8.78514C292.611 9.96556 293.058 10.9904 293.902 11.8593C294.771 12.7026 295.796 13.1502 296.976 13.2029L297.214 13.2082C298.441 13.2082 299.499 12.8129 300.391 12.0223L300.567 11.8593C301.436 10.9903 301.897 9.96568 301.952 8.78514L301.957 8.54795ZM301.692 59.2705H292.573V23.6962H301.692V59.2705ZM302.96 8.54795C302.96 10.1015 302.386 11.4584 301.276 12.5682L301.265 12.5788C300.149 13.6624 298.78 14.2112 297.214 14.2113C295.67 14.2113 294.317 13.658 293.205 12.5788L293.193 12.5682L293.184 12.5576C292.104 11.4456 291.551 10.0919 291.551 8.54795C291.551 7.0038 292.104 5.64908 293.184 4.53695L293.193 4.52635L293.9 5.23394L293.194 4.52635C294.304 3.41682 295.661 2.84351 297.214 2.84351C298.236 2.84356 299.189 3.10977 300.054 3.63855L300.055 3.63723C300.927 4.15379 301.633 4.84002 302.157 5.69109H302.156C302.697 6.54301 302.96 7.50557 302.96 8.54795Z" fill="#FCEED0"/>
<path d="M269.879 23.7161C272.087 23.7161 274.227 24.1795 276.298 25.1063C278.397 26.0331 280.115 27.5051 281.45 29.5223C282.813 31.5122 283.495 34.1154 283.495 37.332V58.267H276.298V38.7222C276.298 35.3966 275.521 32.9842 273.968 31.4849C272.414 29.9584 270.41 29.1952 267.957 29.1952C266.349 29.1952 264.795 29.6586 263.296 30.5854C261.824 31.4849 260.611 32.7388 259.657 34.3471C258.703 35.9282 258.225 37.7273 258.225 39.7444V58.267H251.111V24.6974H258.225V30.6671C258.471 29.7403 259.139 28.7317 260.229 27.6414C261.319 26.551 262.71 25.6242 264.4 24.8609C266.09 24.0977 267.916 23.7161 269.879 23.7161Z" fill="#FCEED0"/>
<path d="M283.494 37.3326C283.494 34.3171 282.895 31.8403 281.698 29.9029L281.45 29.5226C280.114 27.5054 278.397 26.0329 276.298 25.1061C274.356 24.2374 272.354 23.7758 270.293 23.7214L269.879 23.7161C267.917 23.7161 266.09 24.0978 264.4 24.861L263.78 25.1551C262.367 25.8587 261.183 26.687 260.229 27.641L259.84 28.0465C258.979 28.9827 258.44 29.8564 258.225 30.6674V24.698H251.111V58.2674H258.225V39.7442C258.225 37.8535 258.644 36.1542 259.483 34.6466L259.656 34.3472C260.551 32.8394 261.674 31.6437 263.023 30.7589L263.296 30.5853C264.795 29.6588 266.349 29.1954 267.957 29.1953L268.412 29.2046C270.659 29.2941 272.511 30.0542 273.967 31.485C275.521 32.9843 276.298 35.397 276.298 38.7226V58.2674H283.494V37.3326ZM259.228 27.2368C259.323 27.1362 259.419 27.0338 259.52 26.9334L259.981 26.4948C261.09 25.4963 262.431 24.6508 263.987 23.948L264.331 23.7983C266.061 23.0733 267.914 22.7144 269.879 22.7144C272.23 22.7144 274.507 23.2081 276.702 24.1892H276.703C278.983 25.1956 280.842 26.7945 282.277 28.9555L282.551 29.3768C283.873 31.5149 284.497 34.1898 284.497 37.3326V59.2692H275.296V38.7226C275.296 35.5245 274.545 33.4352 273.271 32.2059L273.265 32.1992C271.923 30.8811 270.183 30.197 267.957 30.197C266.552 30.1971 265.179 30.5988 263.822 31.4373L263.818 31.44C262.497 32.2472 261.397 33.3789 260.519 34.8587L260.515 34.8653C259.664 36.2757 259.228 37.8923 259.228 39.7442V59.2692H250.109V23.6949H259.228V27.2368Z" fill="#FCEED0"/>
<path d="M153.645 22.7131C155.39 22.7131 157.012 22.8903 158.511 23.2447C160.038 23.5991 161.346 24.0216 162.437 24.5122C163.554 25.0029 164.345 25.439 164.808 25.8207L161.987 30.3184C161.442 29.8278 160.46 29.2826 159.043 28.6829C157.625 28.0559 156.044 27.7424 154.3 27.7424C152.392 27.7424 150.77 28.1241 149.434 28.8873C148.098 29.6233 147.43 30.7001 147.43 32.1175C147.43 33.535 148.112 34.6663 149.475 35.5113C150.865 36.3291 152.719 37.0106 155.036 37.5557C156.889 37.9919 158.62 38.578 160.229 39.314C161.864 40.05 163.186 41.0722 164.195 42.3806C165.203 43.6618 165.708 45.3791 165.708 47.5326C165.708 49.4953 165.299 51.1717 164.481 52.5619C163.663 53.9249 162.559 55.0289 161.169 55.8739C159.779 56.6917 158.225 57.2914 156.508 57.673C154.79 58.0546 153.046 58.2454 151.274 58.2454C149.202 58.2454 147.335 58.0274 145.672 57.5912C144.009 57.1823 142.606 56.6917 141.461 56.1192C140.343 55.5195 139.525 55.0016 139.007 54.5655L141.829 49.4952C142.537 50.1767 143.696 50.8991 145.304 51.6624C146.94 52.4256 148.793 52.8072 150.865 52.8072C153.155 52.8072 155.008 52.3302 156.426 51.3761C157.843 50.3948 158.552 49.1273 158.552 47.5735C158.552 46.4013 158.211 45.4609 157.53 44.7522C156.848 44.0434 155.935 43.471 154.79 43.0348C153.645 42.5987 152.392 42.2171 151.029 41.8899C149.72 41.5901 148.439 41.1948 147.185 40.7042C145.958 40.2135 144.827 39.5865 143.791 38.8233C142.783 38.0328 141.979 37.0787 141.379 35.9611C140.779 34.8162 140.479 33.4805 140.479 31.954C140.479 30.0186 141.093 28.3694 142.319 27.0065C143.546 25.6162 145.154 24.5531 147.144 23.8171C149.134 23.0811 151.301 22.7131 153.645 22.7131Z" fill="#FCEED0"/>
<path d="M157.55 47.5729C157.55 46.7278 157.34 46.1066 156.974 45.6383L156.807 45.4475C156.25 44.8683 155.473 44.3674 154.434 43.9713C153.334 43.5525 152.122 43.1834 150.795 42.8649C149.442 42.5543 148.116 42.1452 146.82 41.6379L146.813 41.6352C145.51 41.1139 144.303 40.4454 143.197 39.6304L143.173 39.6118C142.057 38.7367 141.161 37.6754 140.495 36.4343L140.491 36.4264C139.804 35.1142 139.478 33.6134 139.478 31.9542C139.478 29.7863 140.172 27.8938 141.574 26.3359C142.924 24.8083 144.677 23.6613 146.796 22.8775L147.596 22.6032C149.482 22.0061 151.501 21.7114 153.645 21.7114C155.455 21.7114 157.154 21.8957 158.736 22.2693L158.737 22.268C160.305 22.6319 161.676 23.072 162.839 23.5944L163.644 23.9654C164.401 24.3327 165.014 24.6915 165.445 25.0466L166.125 25.6071L162.203 31.8602L161.316 31.0638C160.903 30.692 160.054 30.1993 158.653 29.6062L158.637 29.5996C157.362 29.0359 155.922 28.745 154.3 28.7449C152.525 28.7449 151.083 29.0991 149.931 29.7573L149.918 29.7652C149.37 30.0671 149.009 30.4098 148.782 30.7749C148.558 31.1363 148.432 31.5725 148.432 32.1172C148.432 33.1339 148.885 33.964 149.992 34.6534C151.264 35.3998 153.009 36.0494 155.264 36.5801L155.977 36.7563C157.625 37.1845 159.182 37.7323 160.646 38.4021C162.413 39.1982 163.865 40.3163 164.981 41.7611C166.168 43.2684 166.709 45.2273 166.709 47.5331C166.709 49.6356 166.27 51.4963 165.344 53.0706L165.34 53.0772C164.437 54.5829 163.215 55.8031 161.69 56.7305L161.676 56.7384L161.675 56.7371C160.373 57.5029 158.946 58.0871 157.396 58.4902L156.725 58.6518C154.936 59.0494 153.118 59.2481 151.273 59.2481C149.139 59.2481 147.189 59.0223 145.432 58.5631C143.72 58.142 142.241 57.6301 141.012 57.0154L140.999 57.0087L140.987 57.0021C139.851 56.3929 138.96 55.8365 138.362 55.3325L137.73 54.7998L141.586 47.871L142.523 48.7734C143.114 49.3417 144.155 50.0074 145.728 50.7544L146.295 50.9982C147.643 51.5308 149.162 51.8052 150.865 51.8052V52.8069L150.098 52.7897C148.459 52.7122 146.964 52.3827 145.613 51.8012L145.304 51.6621C143.696 50.8989 142.537 50.177 141.828 49.4956L139.007 54.5653C139.525 55.0014 140.342 55.52 141.46 56.1196C142.605 56.6921 144.009 57.1829 145.672 57.5918C147.127 57.9733 148.738 58.188 150.506 58.2358L151.273 58.245C152.824 58.245 154.354 58.0999 155.862 57.8078L156.507 57.6726C158.01 57.3386 159.388 56.838 160.64 56.17L161.169 55.8745C162.385 55.1351 163.383 54.1972 164.161 53.0613L164.48 52.5618C165.196 51.3454 165.599 49.91 165.689 48.2553L165.707 47.5331C165.707 45.3798 165.203 43.6624 164.194 42.3813C163.312 41.2364 162.19 40.3105 160.827 39.6039L160.228 39.3137C158.821 38.6697 157.319 38.1407 155.724 37.7263L155.035 37.5553C152.718 37.0102 150.865 36.3284 149.475 35.5107C148.197 34.7184 147.518 33.6751 147.439 32.3796L147.431 32.1172C147.431 30.7885 148.018 29.7597 149.192 29.0298L149.434 28.888C150.77 28.1248 152.392 27.7418 154.3 27.7418L154.946 27.7577C156.437 27.8263 157.802 28.1342 159.042 28.6826C160.46 29.2823 161.441 29.8284 161.987 30.3191L164.808 25.8205C164.46 25.5344 163.929 25.2178 163.214 24.8704L162.436 24.5126C161.482 24.0833 160.361 23.706 159.073 23.381L158.511 23.2445C157.199 22.9345 155.793 22.7599 154.293 22.7211L153.645 22.7132C151.301 22.7132 149.134 23.0811 147.144 23.817L146.775 23.9588C144.954 24.6871 143.468 25.7032 142.318 27.0064L142.096 27.2648C141.018 28.5762 140.479 30.1397 140.479 31.9542L140.493 32.5174C140.558 33.8114 140.854 34.9595 141.379 35.9613C141.979 37.0787 142.782 38.033 143.791 38.8234C144.826 39.5867 145.959 40.213 147.185 40.7037C148.439 41.1943 149.72 41.5898 151.028 41.8897C152.391 42.2167 153.645 42.5984 154.79 43.0345C155.935 43.4707 156.849 44.0431 157.53 44.7518C158.212 45.4604 158.552 46.4011 158.552 47.5729L158.544 47.8618C158.461 49.2848 157.754 50.4559 156.425 51.3759C155.008 52.3298 153.155 52.8069 150.865 52.8069V51.8052C153.014 51.8051 154.65 51.3571 155.853 50.5517C157.034 49.7336 157.55 48.7578 157.55 47.5729Z" fill="#FCEED0"/>
<path d="M120.743 22.7131C122.487 22.7131 124.109 22.8903 125.609 23.2447C127.135 23.5991 128.444 24.0216 129.534 24.5122C130.652 25.0029 131.442 25.439 131.906 25.8207L129.084 30.3184C128.539 29.8278 127.558 29.2826 126.14 28.6829C124.723 28.0559 123.142 27.7424 121.397 27.7424C119.489 27.7424 117.867 28.1241 116.531 28.8873C115.196 29.6233 114.528 30.7001 114.528 32.1175C114.528 33.535 115.209 34.6663 116.572 35.5113C117.962 36.3291 119.816 37.0106 122.133 37.5557C123.987 37.9919 125.718 38.578 127.326 39.314C128.962 40.05 130.284 41.0722 131.292 42.3806C132.301 43.6618 132.805 45.3791 132.805 47.5326C132.805 49.4953 132.396 51.1717 131.578 52.5619C130.761 53.9249 129.657 55.0289 128.266 55.8739C126.876 56.6917 125.322 57.2914 123.605 57.673C121.888 58.0546 120.143 58.2454 118.371 58.2454C116.3 58.2454 114.432 58.0274 112.77 57.5912C111.107 57.1823 109.703 56.6917 108.558 56.1192C107.44 55.5195 106.623 55.0016 106.105 54.5655L108.926 49.4952C109.635 50.1767 110.793 50.8991 112.402 51.6624C114.037 52.4256 115.891 52.8072 117.962 52.8072C120.252 52.8072 122.106 52.3302 123.523 51.3761C124.941 50.3948 125.65 49.1273 125.65 47.5735C125.65 46.4013 125.309 45.4609 124.627 44.7522C123.946 44.0434 123.033 43.471 121.888 43.0348C120.743 42.5987 119.489 42.2171 118.126 41.8899C116.818 41.5901 115.536 41.1948 114.282 40.7042C113.056 40.2135 111.925 39.5865 110.889 38.8233C109.88 38.0328 109.076 37.0787 108.476 35.9611C107.877 34.8162 107.577 33.4805 107.577 31.954C107.577 30.0186 108.19 28.3694 109.417 27.0065C110.643 25.6162 112.252 24.5531 114.242 23.8171C116.232 23.0811 118.399 22.7131 120.743 22.7131Z" fill="#FCEED0"/>
<path d="M124.648 47.5729C124.647 46.7278 124.437 46.1066 124.071 45.6383L123.904 45.4475C123.347 44.8683 122.571 44.3674 121.531 43.9713C120.432 43.5525 119.219 43.1834 117.892 42.8649C116.539 42.5543 115.214 42.1452 113.917 41.6379L113.911 41.6352C112.607 41.1139 111.401 40.4454 110.294 39.6304L110.271 39.6118C109.154 38.7367 108.259 37.6754 107.593 36.4343L107.589 36.4264C106.901 35.1142 106.575 33.6134 106.575 31.9542C106.575 29.7863 107.269 27.8938 108.671 26.3359C110.021 24.8083 111.774 23.6614 113.893 22.8775L114.694 22.6032C116.58 22.0061 118.598 21.7114 120.743 21.7114C122.553 21.7114 124.251 21.8957 125.834 22.2693L125.835 22.268C127.402 22.6319 128.773 23.072 129.936 23.5944L130.742 23.9654C131.499 24.3327 132.111 24.6915 132.542 25.0466L133.222 25.6071L129.3 31.8602L128.413 31.0638C128 30.692 127.152 30.1993 125.75 29.6062L125.734 29.5996C124.46 29.0359 123.019 28.745 121.397 28.7449C119.622 28.7449 118.18 29.0991 117.028 29.7573L117.015 29.7652C116.467 30.0671 116.106 30.4098 115.88 30.7749C115.655 31.1363 115.53 31.5726 115.53 32.1172C115.53 33.1339 115.983 33.964 117.089 34.6534C118.361 35.3998 120.107 36.0494 122.362 36.5801L123.075 36.7563C124.723 37.1845 126.279 37.7323 127.743 38.4021C129.51 39.1982 130.963 40.3163 132.079 41.7611C133.265 43.2684 133.807 45.2273 133.807 47.5331C133.806 49.6356 133.368 51.4963 132.442 53.0706L132.438 53.0772C131.534 54.5829 130.313 55.8031 128.787 56.7305L128.774 56.7384L128.773 56.7371C127.471 57.5029 126.043 58.0871 124.494 58.4902L123.822 58.6518C122.033 59.0494 120.215 59.2481 118.371 59.2481C116.236 59.2481 114.287 59.0223 112.53 58.5631C110.817 58.142 109.339 57.6301 108.109 57.0154L108.096 57.0087L108.084 57.0021C106.949 56.3929 106.058 55.8365 105.459 55.3325L104.827 54.7998L108.683 47.871L109.62 48.7734C110.211 49.3417 111.252 50.0074 112.825 50.7544L113.392 50.9982C114.74 51.5308 116.259 51.8052 117.963 51.8052V52.8069L117.195 52.7897C115.556 52.7122 114.061 52.3827 112.71 51.8012L112.401 51.6621C110.793 50.8989 109.634 50.177 108.926 49.4956L106.105 54.5653C106.622 55.0014 107.44 55.52 108.557 56.1196C109.702 56.6921 111.107 57.1829 112.77 57.5918C114.224 57.9733 115.836 58.188 117.604 58.2358L118.371 58.245C119.921 58.245 121.451 58.0999 122.959 57.8078L123.605 57.6726C125.108 57.3386 126.485 56.838 127.738 56.17L128.266 55.8745C129.483 55.1351 130.48 54.1972 131.258 53.0613L131.578 52.5618C132.293 51.3454 132.697 49.91 132.786 48.2553L132.805 47.5331C132.805 45.3798 132.3 43.6624 131.292 42.3813C130.409 41.2364 129.287 40.3105 127.925 39.6039L127.326 39.3137C125.918 38.6697 124.417 38.1407 122.822 37.7263L122.133 37.5553C119.816 37.0102 117.963 36.3284 116.573 35.5107C115.295 34.7184 114.616 33.6751 114.536 32.3796L114.528 32.1172C114.528 30.7885 115.115 29.7597 116.289 29.0298L116.532 28.888C117.867 28.1248 119.489 27.7418 121.397 27.7418L122.044 27.7577C123.534 27.8263 124.9 28.1342 126.14 28.6826C127.557 29.2823 128.539 29.8284 129.084 30.3191L131.905 25.8205C131.558 25.5344 131.026 25.2178 130.311 24.8704L129.533 24.5126C128.579 24.0833 127.458 23.706 126.17 23.381L125.608 23.2445C124.296 22.9345 122.89 22.7599 121.391 22.7211L120.743 22.7132C118.399 22.7132 116.232 23.0811 114.242 23.817L113.872 23.9588C112.051 24.6871 110.566 25.7032 109.416 27.0064L109.193 27.2648C108.115 28.5762 107.577 30.1397 107.577 31.9542L107.59 32.5174C107.656 33.8114 107.952 34.9595 108.476 35.9613C109.076 37.0787 109.88 38.033 110.888 38.8234C111.924 39.5867 113.056 40.213 114.283 40.7037C115.537 41.1943 116.817 41.5898 118.126 41.8897C119.488 42.2167 120.743 42.5984 121.887 43.0345C123.032 43.4707 123.946 44.0431 124.628 44.7518C125.309 45.4604 125.649 46.4011 125.649 47.5729L125.641 47.8618C125.558 49.2848 124.851 50.4559 123.523 51.3759C122.105 52.3298 120.252 52.8069 117.963 52.8069V51.8052C120.112 51.8051 121.747 51.3571 122.95 50.5517C124.132 49.7336 124.648 48.7578 124.648 47.5729Z" fill="#FCEED0"/>
<path d="M91.6914 57.2641V50.7219C91.4733 51.4034 90.8327 52.3438 89.7696 53.5432C88.7337 54.7426 87.3026 55.833 85.4763 56.8143C83.6772 57.7684 81.551 58.2454 79.0976 58.2454C75.9901 58.2454 73.1688 57.5094 70.6337 56.0374C68.1258 54.5655 66.1223 52.5074 64.623 49.8632C63.151 47.1919 62.415 44.0707 62.415 40.4997C62.415 36.9288 63.151 33.8212 64.623 31.1771C66.1223 28.5057 68.1258 26.434 70.6337 24.962C73.1688 23.4628 75.9901 22.7131 79.0976 22.7131C81.5237 22.7131 83.6227 23.1493 85.3945 24.0216C87.1936 24.8939 88.6247 25.9025 89.6878 27.0473C90.7782 28.1922 91.4188 29.1736 91.6096 29.9913V23.6945H98.6424V57.2641H91.6914ZM69.4479 40.4997C69.4479 42.9258 69.9795 45.0247 71.0426 46.7966C72.1057 48.5684 73.4823 49.945 75.1723 50.9264C76.8897 51.8804 78.716 52.3575 80.6514 52.3575C82.7231 52.3575 84.5767 51.8668 86.2123 50.8855C87.8478 49.9041 89.1426 48.5276 90.0967 46.7557C91.0508 44.9566 91.5278 42.8713 91.5278 40.4997C91.5278 38.1282 91.0508 36.0565 90.0967 34.2846C89.1426 32.4855 87.8478 31.0953 86.2123 30.114C84.5767 29.1054 82.7231 28.6011 80.6514 28.6011C78.716 28.6011 76.8897 29.0918 75.1723 30.0731C73.4823 31.0544 72.1057 32.431 71.0426 34.2029C69.9795 35.9747 69.4479 38.0737 69.4479 40.4997Z" fill="#FCEED0"/>
<path d="M98.6424 23.6951H91.6089V29.9918C91.4181 29.174 90.7779 28.1924 89.6875 27.0475C88.7572 26.0457 87.5453 25.148 86.0515 24.3549L85.3943 24.021C83.7331 23.2033 81.7842 22.7695 79.548 22.7185L79.0975 22.7132C75.99 22.7132 73.1681 23.4626 70.6329 24.9618L70.1692 25.2454C67.8772 26.6957 66.0279 28.6734 64.6224 31.1778C63.1507 33.8217 62.4149 36.929 62.4148 40.4996L62.4241 41.1635C62.5103 44.4588 63.2423 47.3594 64.6224 49.8639C66.1216 52.5078 68.1254 54.5655 70.6329 56.0375C73.0097 57.4175 75.6386 58.1509 78.5185 58.2371L79.0975 58.245C81.3974 58.245 83.4096 57.826 85.1346 56.9875L85.4764 56.814C87.3025 55.8327 88.7339 54.7429 89.7697 53.5437C90.8325 52.3446 91.4728 51.404 91.691 50.7226V57.2645H98.6424V23.6951ZM90.525 40.4996C90.5249 38.2644 90.0769 36.3612 89.2145 34.7594L89.2105 34.7541C88.3359 33.1051 87.1647 31.8547 85.6964 30.9737L85.6858 30.9671C84.2209 30.0638 82.5525 29.6037 80.6518 29.6036C78.8949 29.6036 77.2389 30.0465 75.6696 30.9432L75.6682 30.9419C74.136 31.833 72.8821 33.0855 71.9024 34.7184C70.9479 36.3091 70.4501 38.2233 70.4501 40.4996C70.4501 42.7761 70.9479 44.6902 71.9024 46.2809C72.88 47.9103 74.1312 49.16 75.659 50.0508L76.2526 50.3569C77.6464 51.0241 79.1099 51.356 80.6518 51.356V52.3577L80.2901 52.3524C78.4884 52.2966 76.7826 51.821 75.1727 50.9267C73.5881 50.0066 72.2786 48.7387 71.2451 47.1237L71.0424 46.7964C70.0457 45.1352 69.5158 43.1865 69.4536 40.9502L69.4483 40.4996C69.4484 38.2255 69.9148 36.2388 70.8489 34.5395L71.0424 34.2029C72.1055 32.4311 73.4826 31.054 75.1727 30.0726C76.8898 29.0915 78.7167 28.6018 80.6518 28.6018L81.0374 28.6071C82.9538 28.6663 84.6787 29.1683 86.2118 30.1137C87.8474 31.095 89.1429 32.4859 90.097 34.2851C91.0508 36.0568 91.528 38.1284 91.528 40.4996L91.5214 40.9409C91.4655 43.1305 90.9912 45.0687 90.097 46.7553C89.1429 48.5272 87.8474 49.9042 86.2118 50.8856L85.9031 51.0631C84.3443 51.9257 82.594 52.3576 80.6518 52.3577V51.356C82.5578 51.3559 84.2301 50.9054 85.6964 50.0256C87.1668 49.1433 88.3374 47.9055 89.2105 46.2862L89.3682 45.9762C90.1306 44.4122 90.525 42.5947 90.525 40.4996ZM99.6441 58.2662H90.6893V54.0114C90.6331 54.076 90.5776 54.1422 90.5197 54.2075C89.3842 55.5194 87.849 56.6779 85.9508 57.6978L85.9455 57.7004L85.9442 57.6991C83.9739 58.7438 81.6809 59.2481 79.0975 59.2481C76.0289 59.2481 73.2032 58.5647 70.6396 57.189L70.1307 56.9041L70.1268 56.9014C67.4601 55.3362 65.3325 53.1482 63.7505 50.3582L63.7452 50.3476C62.1787 47.5046 61.4131 44.2107 61.4131 40.4996C61.4131 36.7892 62.178 33.5079 63.7465 30.6901L63.7492 30.6862L64.0513 30.1654C65.5971 27.5968 67.6217 25.5679 70.1228 24.0992L70.6329 23.809C73.1976 22.4072 76.0258 21.7114 79.0975 21.7114C81.6403 21.7114 83.8953 22.168 85.8315 23.12L86.5206 23.4698C88.0871 24.3014 89.3919 25.2596 90.4123 26.3558H90.4137C90.4798 26.4252 90.5433 26.496 90.6071 26.5652V22.692H99.6441V58.2662Z" fill="#FCEED0"/>
<path d="M54.4563 57.2646H47.3008V1.00171H54.4563V57.2646Z" fill="#FCEED0"/>
<path d="M54.4562 1.00176H47.3008V57.2644H54.4562V1.00176ZM55.458 58.2662H46.2991V0H55.458V58.2662Z" fill="#FCEED0"/>
<path d="M19.3199 75.2143C16.6757 75.2143 14.2769 74.9417 12.1234 74.3965C9.99723 73.8513 8.12998 73.0744 6.52169 72.0658C4.94066 71.0845 3.67311 69.926 2.71904 68.5903L7.38035 64.1334C7.89827 64.8422 8.59338 65.5918 9.46568 66.3823C10.3652 67.2001 11.5783 67.8952 13.1048 68.4676C14.6313 69.0401 16.6212 69.3263 19.0745 69.3263C21.4733 69.3263 23.5041 68.8084 25.1669 67.7725C26.8298 66.7639 28.0973 65.3873 28.9696 63.6427C29.8419 61.8982 30.278 59.9355 30.278 57.7548V56.6508H37.2291V58.2045C37.2291 61.9118 36.425 65.0193 34.8167 67.5272C33.2357 70.0623 31.0958 71.9704 28.3972 73.2516C25.6985 74.56 22.6727 75.2143 19.3199 75.2143ZM30.278 57.2641V50.7219C30.06 51.4034 29.4194 52.3438 28.3563 53.5432C27.3204 54.7426 25.8893 55.833 24.063 56.8143C22.2638 57.7684 20.1376 58.2454 17.6843 58.2454C14.5768 58.2454 11.7554 57.5094 9.22034 56.0374C6.7125 54.5655 4.70895 52.5074 3.2097 49.8632C1.73771 47.1919 1.00171 44.0707 1.00171 40.4997C1.00171 36.9288 1.73771 33.8212 3.2097 31.1771C4.70895 28.5057 6.7125 26.434 9.22034 24.962C11.7554 23.4628 14.5768 22.7131 17.6843 22.7131C20.1104 22.7131 22.2093 23.1493 23.9812 24.0216C25.7803 24.8939 27.2114 25.9025 28.2745 27.0473C29.3649 28.1922 30.0054 29.1736 30.1963 29.9913V23.6945H37.2291V57.2641H30.278ZM8.03457 40.4997C8.03457 42.9258 8.56612 45.0247 9.62923 46.7966C10.6923 48.5684 12.0689 49.945 13.759 50.9264C15.4763 51.8804 17.3027 52.3575 19.2381 52.3575C21.3098 52.3575 23.1634 51.8668 24.799 50.8855C26.4345 49.9041 27.7293 48.5275 28.6834 46.7557C29.6374 44.9566 30.1145 42.8713 30.1145 40.4997C30.1145 38.1282 29.6374 36.0565 28.6834 34.2846C27.7293 32.4855 26.4345 31.0953 24.799 30.114C23.1634 29.1054 21.3098 28.6011 19.2381 28.6011C17.3027 28.6011 15.4763 29.0918 13.759 30.0731C12.0689 31.0544 10.6923 32.431 9.62923 34.2029C8.56612 35.9747 8.03457 38.0737 8.03457 40.4997Z" fill="#FCEED0"/>
<path d="M37.2293 23.6951H30.1958V29.9918C30.005 29.174 29.3648 28.1924 28.2744 27.0475C27.3442 26.0457 26.1322 25.148 24.6384 24.3549L23.9812 24.021C22.32 23.2033 20.3711 22.7695 18.135 22.7185L17.6844 22.7132C14.5769 22.7132 11.755 23.4626 9.21986 24.9618L8.75609 25.2454C6.46415 26.6957 4.61485 28.6734 3.20933 31.1778C1.73759 33.8217 1.00177 36.929 1.00176 40.4997L1.01103 41.1635C1.09722 44.4588 1.82926 47.3594 3.20933 49.8639C4.70848 52.5078 6.71231 54.5655 9.21986 56.0375C11.5966 57.4175 14.2255 58.1509 17.1054 58.2371L17.6844 58.245C19.9843 58.245 21.9966 57.826 23.7215 56.9875L24.0633 56.814C25.8894 55.8327 27.3208 54.7429 28.3566 53.5437C29.4194 52.3446 30.0597 51.404 30.2779 50.7226V57.7548C30.2779 59.9355 29.8424 61.8988 28.9701 63.6434L28.8018 63.9654C27.9377 65.5579 26.726 66.8267 25.1671 67.7723C23.5043 68.8082 21.4732 69.3266 19.0744 69.3266V68.3236C21.328 68.3236 23.1656 67.8383 24.6371 66.9216L24.6477 66.915C26.1481 66.0048 27.2851 64.7701 28.073 63.1942L28.2174 62.8934C28.8238 61.5798 29.1738 60.1225 29.2563 58.5101L29.2762 57.7548V54.0114C29.2201 54.076 29.1645 54.1422 29.1066 54.2075C27.9711 55.5194 26.4359 56.6779 24.5377 57.6978L24.5324 57.7004L24.5311 57.6991C22.5608 58.7438 20.2678 59.2481 17.6844 59.2481C14.4113 59.2481 11.4148 58.4701 8.71766 56.9041L8.71369 56.9014C6.21359 55.434 4.1878 53.4189 2.64087 50.8737L2.33743 50.3582L2.33213 50.3476C0.765567 47.5046 0 44.2107 0 40.4997C1.77157e-05 36.7892 0.76493 33.5079 2.33346 30.6901L2.33611 30.6862L2.63822 30.1654C4.18399 27.5968 6.20863 25.5679 8.70971 24.0992L9.21986 23.809C11.7845 22.4072 14.6127 21.7114 17.6844 21.7114C20.2272 21.7114 22.4823 22.168 24.4185 23.12L25.1075 23.4698C26.674 24.3014 27.9789 25.2596 28.9992 26.3558C29.0654 26.4252 29.1302 26.496 29.194 26.5652V22.692H38.231V58.2662C38.2222 62.0868 37.3861 65.3678 35.6657 68.0559L35.667 68.0572C33.9859 70.7527 31.7021 72.7892 28.8336 74.1526L28.8349 74.1539C25.9847 75.5358 22.8059 76.217 19.3196 76.217C16.608 76.217 14.1252 75.9365 11.878 75.3676H11.874C9.66483 74.8012 7.70065 73.9876 5.99331 72.9176L5.37847 72.5174C3.97742 71.5611 2.81473 70.4477 1.90413 69.1729L1.39928 68.4667L7.51449 62.6191L8.18896 63.5427C8.65581 64.1815 9.30042 64.8811 10.1381 65.6403L10.4469 65.9026C11.1978 66.5069 12.1911 67.0554 13.4561 67.5298L13.9941 67.7114C15.3016 68.1097 16.9852 68.3235 19.0744 68.3236V69.3266L18.176 69.3134C16.4229 69.2597 14.9304 69.0451 13.6986 68.6694L13.105 68.468C11.5786 67.8956 10.3658 67.2 9.46633 66.3823C8.59414 65.5919 7.89857 64.8423 7.38066 64.1337L2.71905 68.5899C3.67312 69.9256 4.94098 71.0842 6.52201 72.0656C8.13019 73.0741 9.99708 73.8512 12.1231 74.3964C14.0075 74.8734 16.0802 75.1424 18.3403 75.202L19.3196 75.2139C22.6725 75.2139 25.699 74.5599 28.3977 73.2515C31.0961 71.9704 33.2354 70.0621 34.8163 67.5272C36.4246 65.0193 37.2293 61.9112 37.2293 58.204V23.6951ZM29.1119 40.4997C29.1119 38.2644 28.6639 36.3612 27.8014 34.7594L27.7974 34.7541C26.9228 33.1051 25.7516 31.8547 24.2833 30.9737L24.2727 30.9671C22.8079 30.0638 21.1394 29.6037 19.2387 29.6036C17.4818 29.6036 15.8258 30.0465 14.2565 30.9432L14.2551 30.9419C12.7229 31.833 11.4691 33.0855 10.4893 34.7184C9.53483 36.3091 9.03702 38.2233 9.037 40.4997C9.037 42.7761 9.53482 44.6902 10.4893 46.2809C11.467 47.9103 12.7181 49.16 14.2459 50.0508L14.8395 50.3569C16.2334 51.0241 17.6968 51.356 19.2387 51.356V52.3577L18.877 52.3524C17.0753 52.2966 15.3696 51.821 13.7596 50.9267C12.175 50.0066 10.8655 48.7387 9.83205 47.1237L9.62931 46.7964C8.63261 45.1352 8.10275 43.1865 8.04055 40.9502L8.03525 40.4997C8.03527 38.2255 8.50169 36.2388 9.43585 34.5395L9.62931 34.2029C10.6924 32.4311 12.0695 31.054 13.7596 30.0726C15.4767 29.0915 17.3036 28.6018 19.2387 28.6018L19.6243 28.6071C21.5407 28.6663 23.2656 29.1683 24.7988 30.1137C26.4343 31.095 27.7298 32.4859 28.6839 34.2851C29.6378 36.0568 30.1149 38.1284 30.115 40.4997L30.1083 40.9409C30.0525 43.1305 29.5782 45.0687 28.6839 46.7553C27.7298 48.5272 26.4343 49.9043 24.7988 50.8856L24.49 51.0631C22.9312 51.9257 21.1809 52.3576 19.2387 52.3577V51.356C21.1447 51.3559 22.817 50.9054 24.2833 50.0256C25.7538 49.1433 26.9243 47.9055 27.7974 46.2862L27.9551 45.9762C28.7175 44.4122 29.1119 42.5947 29.1119 40.4997Z" fill="#FCEED0"/>
<path d="M229.983 98.4646L235.031 86.4004H238.202L228.106 108.943H224.899L228.288 101.362L222.129 86.4004H225.354L229.983 98.4646Z" fill="#FCEED0"/>
<path d="M225.661 85.9539L230.001 97.2647L234.619 86.2281L234.734 85.9539H238.892L228.514 109.125L228.395 109.39H224.21L227.801 101.355L221.462 85.9539H225.661ZM222.129 86.4004L228.289 101.362L224.898 108.944H228.106L238.202 86.4004H235.031L229.984 98.4652L225.354 86.4004H222.129Z" fill="#FCEED0"/>
<path d="M207.436 108.943H204.283V86.4005H207.491V89.207C207.6 88.8303 207.904 88.3869 208.402 87.8766C208.9 87.3664 209.568 86.9229 210.407 86.5463C211.257 86.1575 212.229 85.9631 213.322 85.9631C214.707 85.9631 215.935 86.2972 217.004 86.9654C218.085 87.6215 218.929 88.5448 219.537 89.7355C220.156 90.9139 220.466 92.2989 220.466 93.8905C220.466 95.482 220.15 96.8731 219.519 98.0637C218.887 99.2422 218.024 100.159 216.931 100.816C215.849 101.472 214.61 101.8 213.213 101.8C212.083 101.8 211.093 101.587 210.243 101.162C209.404 100.737 208.742 100.257 208.256 99.7221C207.782 99.1875 207.509 98.7623 207.436 98.4464V108.943ZM217.332 93.8905C217.332 92.8092 217.107 91.8737 216.657 91.084C216.22 90.2943 215.637 89.6808 214.908 89.2434C214.179 88.806 213.389 88.5874 212.539 88.5874C211.603 88.5874 210.753 88.8121 209.988 89.2616C209.222 89.699 208.615 90.3186 208.165 91.1205C207.716 91.9102 207.491 92.8335 207.491 93.8905C207.491 94.9475 207.716 95.8769 208.165 96.6787C208.615 97.4684 209.222 98.082 209.988 98.5193C210.753 98.9567 211.603 99.1754 212.539 99.1754C213.389 99.1754 214.179 98.9628 214.908 98.5376C215.637 98.1002 216.22 97.4867 216.657 96.697C217.107 95.9073 217.332 94.9718 217.332 93.8905Z" fill="#FCEED0"/>
<path d="M220.466 93.8911C220.466 92.2995 220.156 90.9141 219.536 89.7356C219.005 88.6939 218.292 87.8571 217.397 87.2246L217.004 86.9649C216.068 86.3803 215.012 86.0522 213.834 85.9791L213.323 85.9632C212.229 85.9632 211.257 86.1574 210.406 86.5462L210.1 86.6906C209.404 87.0348 208.837 87.43 208.402 87.8766L208.065 88.2463C207.764 88.604 207.573 88.9244 207.491 89.2069V86.4004H204.283V108.944H207.436V98.4467C207.509 98.7625 207.782 99.1882 208.256 99.7227C208.742 100.257 209.404 100.737 210.242 101.162C210.986 101.534 211.838 101.743 212.795 101.79L213.213 101.799C214.61 101.799 215.85 101.472 216.931 100.816C217.888 100.242 218.668 99.4672 219.271 98.4931L219.519 98.0637C220.072 97.022 220.383 95.8267 220.452 94.4781L220.466 93.8911ZM216.885 93.8911C216.885 92.8725 216.673 92.0151 216.269 91.3045L216.266 91.3005C215.864 90.5755 215.335 90.0214 214.678 89.627C214.019 89.2313 213.308 89.0347 212.538 89.0347C211.678 89.0347 210.906 89.2398 210.213 89.6469L210.209 89.6495C209.517 90.0449 208.966 90.6046 208.554 91.339L208.553 91.3416C208.147 92.0536 207.938 92.899 207.938 93.8911C207.938 94.8816 208.147 95.7328 208.553 96.4577L208.714 96.7214C209.105 97.3167 209.602 97.7846 210.209 98.1313L210.473 98.2704C211.097 98.5745 211.784 98.7289 212.538 98.7289V99.1755L212.191 99.1649C211.506 99.1238 210.868 98.9603 210.278 98.6733L209.988 98.5196C209.318 98.1368 208.768 97.6191 208.341 96.9666L208.164 96.679C207.771 95.9773 207.55 95.1777 207.5 94.2806L207.491 93.8911C207.491 92.9661 207.662 92.1427 208.007 91.4225L208.164 91.1203C208.558 90.4187 209.073 89.8574 209.708 89.4348L209.988 89.2613C210.753 88.8119 211.603 88.5868 212.538 88.5868L212.855 88.5974C213.586 88.6453 214.27 88.8614 214.908 89.244C215.637 89.6814 216.219 90.2949 216.657 91.0846C217.106 91.8742 217.331 92.8099 217.331 93.8911L217.321 94.2886C217.272 95.203 217.05 96.0065 216.657 96.6976C216.219 97.487 215.636 98.1009 214.908 98.5381L214.632 98.6865C213.981 99.0123 213.283 99.1755 212.538 99.1755V98.7289C213.214 98.7289 213.844 98.5824 214.433 98.2877L214.682 98.1512C215.338 97.7569 215.865 97.2039 216.266 96.4803L216.269 96.4763L216.412 96.2033C216.723 95.5495 216.885 94.7823 216.885 93.8911ZM207.938 87.7228C207.985 87.6714 208.032 87.617 208.082 87.5652L208.296 87.3585C208.811 86.8876 209.458 86.4834 210.224 86.1394C211.141 85.7206 212.177 85.5166 213.323 85.5166C214.78 85.5167 216.088 85.8693 217.233 86.5833H217.234C218.389 87.284 219.29 88.2697 219.932 89.5276L220.163 90.0073C220.666 91.1492 220.913 92.4473 220.913 93.8911C220.913 95.5422 220.584 97.0074 219.912 98.2731V98.2744C219.245 99.5203 218.326 100.499 217.16 101.199L217.159 101.198C216.001 101.899 214.682 102.246 213.213 102.246C212.027 102.246 210.966 102.023 210.043 101.562L210.041 101.561C209.168 101.118 208.457 100.607 207.926 100.022L207.922 100.018C207.908 100.003 207.896 99.986 207.882 99.9705V109.39H203.837V85.9539H207.938V87.7228Z" fill="#FCEED0"/>
<path d="M196.893 101.362V98.4464C196.796 98.7502 196.51 99.1693 196.036 99.7039C195.575 100.238 194.937 100.724 194.123 101.162C193.321 101.587 192.373 101.8 191.28 101.8C189.895 101.8 188.637 101.472 187.507 100.816C186.39 100.159 185.497 99.2422 184.829 98.0637C184.173 96.8731 183.844 95.482 183.844 93.8905C183.844 92.2989 184.173 90.9139 184.829 89.7355C185.497 88.5448 186.39 87.6215 187.507 86.9654C188.637 86.2972 189.895 85.9631 191.28 85.9631C192.361 85.9631 193.297 86.1575 194.086 86.5463C194.888 86.9351 195.526 87.3846 196 87.8949C196.486 88.4051 196.771 88.8425 196.856 89.207V86.4005H199.991V101.362H196.893ZM186.979 93.8905C186.979 94.9718 187.216 95.9073 187.69 96.697C188.164 97.4867 188.777 98.1002 189.53 98.5376C190.296 98.9628 191.11 99.1754 191.972 99.1754C192.896 99.1754 193.722 98.9567 194.451 98.5193C195.18 98.082 195.757 97.4684 196.182 96.6787C196.607 95.8769 196.82 94.9475 196.82 93.8905C196.82 92.8335 196.607 91.9102 196.182 91.1205C195.757 90.3186 195.18 89.699 194.451 89.2616C193.722 88.8121 192.896 88.5874 191.972 88.5874C191.11 88.5874 190.296 88.806 189.53 89.2434C188.777 89.6808 188.164 90.2943 187.69 91.084C187.216 91.8737 186.979 92.8092 186.979 93.8905Z" fill="#FCEED0"/>
<path d="M199.991 86.4004H196.857V89.2069C196.772 88.8425 196.485 88.4054 195.999 87.8951C195.585 87.4485 195.045 87.0481 194.379 86.6946L194.086 86.5462C193.395 86.2061 192.592 86.0149 191.678 85.9724L191.279 85.9632C189.895 85.9632 188.637 86.2968 187.507 86.9649L187.099 87.2246C186.17 87.8571 185.414 88.694 184.829 89.7356C184.173 90.9141 183.844 92.2995 183.844 93.8911L183.86 94.4781C183.932 95.8268 184.255 97.022 184.829 98.0637C185.497 99.242 186.389 100.16 187.507 100.816C188.496 101.39 189.583 101.713 190.767 101.785L191.279 101.799C192.236 101.799 193.082 101.637 193.816 101.311L194.123 101.162C194.937 100.724 195.575 100.239 196.037 99.7042C196.51 99.1698 196.795 98.7504 196.893 98.4467V101.362H199.991V86.4004ZM196.373 93.8911C196.373 92.8948 196.173 92.0462 195.789 91.3324L195.787 91.3297C195.398 90.5947 194.876 90.0369 194.221 89.6442L194.216 89.6416C193.563 89.2391 192.819 89.0347 191.973 89.0347C191.19 89.0347 190.452 89.2294 189.753 89.6283L189.754 89.6296C189.07 90.0269 188.51 90.5851 188.073 91.3138C187.647 92.0228 187.426 92.8765 187.426 93.8911C187.426 94.9054 187.648 95.7582 188.073 96.467C188.509 97.1933 189.067 97.7502 189.748 98.1472L190.011 98.2837C190.633 98.5812 191.285 98.7289 191.973 98.7289V99.1755L191.651 99.1649C191.013 99.1249 190.402 98.9656 189.819 98.6865L189.53 98.5381C188.871 98.1554 188.319 97.6375 187.874 96.9851L187.69 96.6976C187.275 96.0064 187.042 95.2031 186.99 94.2886L186.98 93.8911C186.98 92.9449 187.16 92.1096 187.523 91.3867L187.69 91.0846C188.164 90.2949 188.777 89.6814 189.53 89.244C190.296 88.8067 191.11 88.5868 191.973 88.5868L192.314 88.5974C193.101 88.6466 193.813 88.8682 194.45 89.2613C195.179 89.6986 195.757 90.3185 196.182 91.1203C196.607 91.91 196.82 92.8341 196.82 93.8911L196.81 94.2806C196.764 95.1777 196.554 95.9773 196.182 96.679C195.757 97.4687 195.179 98.0822 194.45 98.5196L194.173 98.6733C193.514 99.0082 192.781 99.1754 191.973 99.1755V98.7289C192.822 98.7289 193.568 98.5287 194.221 98.1366C194.877 97.7429 195.399 97.19 195.789 96.467C196.174 95.7402 196.373 94.8858 196.373 93.8911ZM200.437 101.808H196.446V99.9096C196.422 99.9374 196.398 99.9662 196.373 99.9944L196.374 99.9957C195.868 100.582 195.182 101.1 194.334 101.555L194.332 101.557C193.454 102.022 192.431 102.246 191.279 102.246C189.821 102.246 188.485 101.899 187.283 101.202L187.282 101.2C186.242 100.59 185.386 99.7673 184.716 98.7382L184.439 98.2837L184.437 98.2797C183.739 97.0127 183.398 95.5448 183.398 93.8911C183.398 92.2373 183.739 90.7742 184.438 89.5183L184.439 89.517L184.715 89.0585C185.385 88.0201 186.24 87.1915 187.28 86.5806L187.738 86.3315C188.819 85.7875 190.002 85.5166 191.279 85.5166C192.413 85.5166 193.418 85.7205 194.281 86.1447L194.588 86.2997C195.286 86.6704 195.868 87.0978 196.323 87.5864L196.41 87.6844V85.9539H200.437V101.808Z" fill="#FCEED0"/>
<path d="M175.56 101.362H172.407V86.4005H175.56V88.9883H175.469C175.53 88.6724 175.755 88.2776 176.143 87.8037C176.532 87.3299 177.067 86.9047 177.747 86.5281C178.427 86.1514 179.241 85.9631 180.189 85.9631C180.882 85.9631 181.489 86.0603 182.011 86.2547C182.546 86.437 182.923 86.6192 183.141 86.8014L181.847 89.4257C181.677 89.2556 181.38 89.0855 180.954 88.9154C180.529 88.7332 180.001 88.642 179.369 88.642C178.567 88.642 177.881 88.8911 177.31 89.3892C176.739 89.8873 176.301 90.4887 175.998 91.1934C175.706 91.8859 175.56 92.5298 175.56 93.1251V101.362Z" fill="#FCEED0"/>
<path d="M175.56 93.1252C175.56 92.5299 175.705 91.8857 175.997 91.1932C176.263 90.5765 176.631 90.0391 177.102 89.5806L177.31 89.3898C177.881 88.8917 178.567 88.6425 179.369 88.6425L179.824 88.6597C180.258 88.6939 180.635 88.7788 180.954 88.9154C181.379 89.0855 181.677 89.2555 181.847 89.4256L183.142 86.8019C182.923 86.6197 182.546 86.4369 182.011 86.2547C181.619 86.1088 181.179 86.0181 180.692 85.9817L180.189 85.9632C179.242 85.9632 178.428 86.1512 177.747 86.5276L177.498 86.6721C176.935 87.0122 176.483 87.3892 176.143 87.8037L175.883 88.1442C175.739 88.348 175.631 88.5344 175.56 88.7034V86.4004H172.407V101.362H175.56V93.1252ZM176.006 87.2856C176.412 86.8558 176.922 86.4734 177.53 86.1367L177.821 85.9897C178.515 85.6696 179.308 85.5166 180.189 85.5166C180.917 85.5167 181.575 85.6195 182.154 85.8333L182.156 85.832C182.701 86.0179 183.142 86.2218 183.427 86.4587L183.697 86.684L183.542 86.9994L181.972 90.1822L181.532 89.7409C181.427 89.6368 181.199 89.4944 180.788 89.3302L180.778 89.3262C180.425 89.1749 179.961 89.089 179.369 89.089C178.756 89.089 178.235 89.2526 177.79 89.5766L177.603 89.7264C177.083 90.18 176.685 90.7268 176.408 91.3708C176.134 92.0207 176.006 92.6038 176.006 93.1252V101.808H171.961V85.9539H176.006V87.2856Z" fill="#FCEED0"/>
<path d="M157.06 94.5283C157.072 95.4274 157.266 96.2474 157.643 96.9885C158.02 97.7296 158.578 98.3189 159.32 98.7563C160.073 99.1936 160.996 99.4123 162.09 99.4123C163.013 99.4123 163.796 99.2787 164.44 99.0114C165.096 98.732 165.631 98.4039 166.044 98.0273C166.457 97.6385 166.755 97.2923 166.937 96.9885L168.486 98.902C168.085 99.4852 167.593 99.9955 167.01 100.433C166.439 100.87 165.74 101.204 164.914 101.435C164.088 101.678 163.08 101.8 161.889 101.8C160.285 101.8 158.894 101.459 157.716 100.779C156.549 100.087 155.65 99.1329 155.019 97.918C154.387 96.6909 154.071 95.2877 154.071 93.7083C154.071 92.2504 154.369 90.9382 154.964 89.7719C155.559 88.5934 156.422 87.664 157.552 86.9837C158.694 86.3033 160.067 85.9631 161.67 85.9631C163.14 85.9631 164.416 86.2729 165.497 86.8925C166.591 87.5 167.435 88.3626 168.03 89.4803C168.638 90.5981 168.942 91.9345 168.942 93.4896C168.942 93.5868 168.936 93.7629 168.923 94.0181C168.911 94.261 168.899 94.4311 168.887 94.5283H157.06ZM165.917 92.141C165.904 91.6429 165.759 91.0962 165.479 90.5009C165.212 89.9056 164.774 89.3953 164.167 88.9701C163.56 88.5448 162.74 88.3322 161.707 88.3322C160.638 88.3322 159.775 88.5388 159.119 88.9518C158.475 89.3649 158.001 89.8691 157.698 90.4644C157.394 91.0476 157.218 91.6064 157.169 92.141H165.917Z" fill="#FCEED0"/>
<path d="M168.941 93.4896C168.941 92.1287 168.709 90.9352 168.244 89.9092L168.031 89.4799C167.51 88.502 166.798 87.7192 165.896 87.1319L165.497 86.892C164.551 86.35 163.456 86.0455 162.212 85.9777L161.67 85.9632C160.067 85.9632 158.694 86.3032 157.552 86.9835C156.422 87.6637 155.559 88.5932 154.964 89.7714L154.755 90.2166C154.299 91.2689 154.071 92.4327 154.071 93.7082L154.086 94.2926C154.155 95.6359 154.466 96.8444 155.018 97.918C155.65 99.1329 156.55 100.086 157.716 100.779C158.748 101.374 159.941 101.709 161.298 101.783L161.889 101.799C163.08 101.799 164.088 101.678 164.914 101.435C165.74 101.204 166.439 100.87 167.01 100.433C167.521 100.05 167.961 99.6115 168.332 99.1172L168.487 98.9025L166.938 96.9891C166.755 97.2928 166.457 97.6393 166.044 98.028C165.631 98.4045 165.096 98.7318 164.44 99.0112L164.192 99.1052C163.598 99.3098 162.897 99.4127 162.089 99.4127V98.9661C162.968 98.9661 163.688 98.8374 164.262 98.6004C164.884 98.3355 165.376 98.0316 165.744 97.6967C166.139 97.3237 166.403 97.0113 166.555 96.7585L166.882 96.2113L169.043 98.88L168.854 99.1556C168.425 99.7785 167.9 100.322 167.281 100.787L167.282 100.788C166.659 101.265 165.907 101.619 165.039 101.863L165.04 101.864C164.161 102.123 163.107 102.246 161.889 102.246C160.221 102.246 158.75 101.892 157.492 101.166L157.488 101.163C156.25 100.428 155.292 99.4125 154.622 98.1247L154.621 98.122C153.952 96.8233 153.625 95.3482 153.625 93.7082C153.625 92.1884 153.935 90.8057 154.565 89.57L154.816 89.1129C155.433 88.0732 156.27 87.2339 157.321 86.6005L157.556 86.468C158.731 85.8283 160.107 85.5166 161.67 85.5166C163.204 85.5166 164.56 85.8403 165.72 86.5051C166.886 87.154 167.787 88.0774 168.422 89.2666C169.072 90.4628 169.389 91.8764 169.389 93.4896C169.389 93.5988 169.381 93.785 169.369 94.0395C169.357 94.2819 169.345 94.4686 169.331 94.5841L169.282 94.975H157.532C157.592 95.6325 157.761 96.2352 158.041 96.7864L158.175 97.0288C158.504 97.5779 158.958 98.0239 159.544 98.3698L159.803 98.5076C160.427 98.8076 161.184 98.966 162.089 98.9661V99.4127L161.688 99.4021C160.768 99.3542 159.979 99.1393 159.32 98.7567C158.671 98.3741 158.163 97.8745 157.793 97.2594L157.643 96.9891C157.267 96.248 157.073 95.4274 157.06 94.5284H168.887L168.924 94.0183L168.941 93.4896ZM162.084 88.3417C162.941 88.3881 163.635 88.5978 164.167 88.9697C164.774 89.395 165.211 89.9062 165.479 90.5015C165.758 91.0966 165.904 91.6427 165.916 92.1406H157.169C157.206 91.74 157.314 91.3257 157.494 90.8977L157.698 90.4644C158.002 89.8692 158.476 89.3656 159.12 88.9525C159.776 88.5395 160.638 88.3324 161.707 88.3324L162.084 88.3417ZM161.707 88.7789C160.692 88.7789 159.919 88.9759 159.357 89.3302C158.772 89.7063 158.358 90.1532 158.095 90.6672L158.094 90.6711C157.908 91.029 157.781 91.3704 157.702 91.6941H165.412C165.352 91.3894 165.245 91.055 165.074 90.691L165.072 90.6844C164.871 90.2364 164.554 89.8352 164.11 89.4839L163.911 89.3355C163.403 88.9799 162.683 88.779 161.707 88.7789Z" fill="#FCEED0"/>
<path d="M144.719 85.963C145.703 85.963 146.656 86.1695 147.58 86.5826C148.515 86.9957 149.281 87.6517 149.876 88.5508C150.483 89.4377 150.787 90.5979 150.787 92.0315V101.362H147.58V92.6511C147.58 91.1689 147.24 90.0937 146.559 89.4255C145.891 88.7451 145.01 88.405 143.917 88.405C143.188 88.405 142.489 88.6115 141.821 89.0246C141.153 89.4255 140.6 89.9844 140.163 90.7012C139.737 91.4058 139.525 92.2077 139.525 93.1067V101.362H136.317V76.2861H139.525V89.061C139.634 88.648 139.926 88.1984 140.4 87.7125C140.885 87.2265 141.505 86.8134 142.258 86.4732C143.012 86.1331 143.832 85.963 144.719 85.963Z" fill="#FCEED0"/>
<path d="M150.787 92.032C150.787 90.7772 150.554 89.7315 150.089 88.8956L149.876 88.551C149.355 87.7643 148.704 87.1635 147.922 86.7489L147.579 86.582C146.772 86.2208 145.941 86.0177 145.087 85.9724L144.718 85.9632C143.832 85.9632 143.011 86.1332 142.258 86.4733L141.982 86.6045C141.352 86.918 140.825 87.2872 140.4 87.7123C139.926 88.1982 139.635 88.6481 139.525 89.0612V76.2861H136.317V101.362H139.525V93.1066C139.525 92.2077 139.738 91.4062 140.163 90.7016C140.545 90.0745 141.016 89.5671 141.575 89.1818L141.82 89.0241C142.489 88.611 143.188 88.4053 143.917 88.4053L144.317 88.4212C145.227 88.4956 145.974 88.8304 146.559 89.4256C147.239 90.0937 147.579 91.1688 147.579 92.6508V101.362H150.787V92.032ZM139.972 87.5148C140.007 87.477 140.042 87.4386 140.079 87.4009L140.083 87.3969L140.289 87.2021C140.783 86.7568 141.381 86.3799 142.075 86.0665L142.384 85.9367C143.112 85.6553 143.891 85.5166 144.718 85.5166C145.766 85.5166 146.781 85.7366 147.759 86.1739H147.761C148.776 86.6223 149.604 87.3354 150.243 88.2979H150.244C150.917 89.2803 151.234 90.5378 151.234 92.032V101.808H147.133V92.6508C147.133 91.3128 146.844 90.4097 146.348 89.8509L146.246 89.7436L146.241 89.7383C145.669 89.1562 144.909 88.8518 143.917 88.8518C143.277 88.8518 142.659 89.0316 142.056 89.4044L142.051 89.407C141.45 89.7675 140.947 90.272 140.544 90.9309L140.546 90.9322C140.166 91.5608 139.972 92.2812 139.972 93.1066V101.808H135.871V75.8396H139.972V87.5148Z" fill="#FCEED0"/>
<path d="M122.904 86.4H125.838V80.2585H128.99V86.4H132.836V89.1153H128.99V96.5142C128.99 97.3889 129.142 98.0328 129.446 98.4459C129.762 98.859 130.181 99.0655 130.703 99.0655C131.165 99.0655 131.523 98.9805 131.779 98.8104C132.034 98.6403 132.186 98.5249 132.234 98.4641L133.492 100.797C133.419 100.858 133.224 100.973 132.908 101.143C132.593 101.313 132.186 101.465 131.687 101.599C131.189 101.732 130.606 101.799 129.938 101.799C128.772 101.799 127.794 101.447 127.004 100.742C126.226 100.025 125.838 98.8954 125.838 97.3525V89.1153H122.904V86.4Z" fill="#FCEED0"/>
<path d="M128.991 96.5146V89.1154H132.835V86.4003H128.991V80.2586H125.837V86.4003H122.904V89.1154H125.837V97.352L125.856 97.9112C125.941 99.1708 126.323 100.114 127.003 100.742C127.694 101.358 128.53 101.706 129.509 101.783L129.938 101.799C130.439 101.799 130.893 101.761 131.298 101.686L131.687 101.599C132.061 101.499 132.384 101.388 132.655 101.268L132.908 101.143C133.066 101.058 133.194 100.986 133.291 100.928L133.492 100.797L132.235 98.4638C132.186 98.5245 132.034 98.6408 131.779 98.8109L131.678 98.8706C131.432 99.0008 131.107 99.0653 130.703 99.0653V98.6188C131.118 98.6188 131.378 98.5408 131.531 98.4386L131.813 98.2411C131.846 98.2162 131.869 98.1969 131.884 98.1842C131.887 98.1809 131.89 98.178 131.892 98.1762L132.308 97.6581L133.884 100.585L134.058 100.906L133.777 101.14C133.72 101.188 133.631 101.246 133.519 101.313L133.12 101.537C132.764 101.728 132.321 101.891 131.803 102.03C131.258 102.176 130.635 102.245 129.938 102.246C128.674 102.246 127.587 101.861 126.707 101.075L126.701 101.07C125.797 100.236 125.391 98.9617 125.391 97.352V89.5619H122.457V85.9537H125.391V79.812H129.438V85.9537H133.282V89.5619H129.438V96.5146C129.438 97.3523 129.586 97.8796 129.805 98.1789C130.035 98.4776 130.321 98.6187 130.703 98.6188V99.0653L130.512 99.0561C130.14 99.0173 129.825 98.8622 129.569 98.591L129.445 98.4465C129.18 98.0851 129.031 97.5462 128.998 96.8313L128.991 96.5146Z" fill="#FCEED0"/>
</svg>
