<svg width="342" height="97" viewBox="0 0 342 97" fill="none" xmlns="http://www.w3.org/2000/svg">
<path d="M169.787 24.9536C172.061 25.6024 174.335 26.2512 176.609 26.8999L169.787 24.9536Z" fill="#F5F5F5"/>
<path d="M169.991 24.2364L176.815 26.183C177.21 26.2961 177.439 26.7087 177.326 27.1046C177.213 27.5006 176.801 27.7306 176.405 27.6176C175.268 27.2933 174.13 26.9688 172.993 26.6444L169.583 25.6711L169.442 25.6148C169.134 25.4546 168.971 25.0958 169.069 24.7495C169.168 24.4028 169.497 24.1829 169.843 24.2094L169.991 24.2364Z" fill="#F5F5F5"/>
<path d="M168.708 30.2009C171.712 30.3613 174.716 30.5216 177.72 30.6819L168.708 30.2009Z" fill="#F5F5F5"/>
<path d="M177.76 29.9358L177.909 29.9593C178.245 30.0468 178.484 30.3614 178.464 30.7213C178.445 31.0808 178.174 31.3673 177.832 31.4186L177.68 31.4257L168.668 30.9443L168.519 30.922C168.184 30.8345 167.945 30.52 167.964 30.1601C167.986 29.7489 168.337 29.4337 168.748 29.4557L177.76 29.9358Z" fill="#F5F5F5"/>
<path d="M168.93 35.5947C172.389 34.9603 175.848 34.3252 179.307 33.6907L168.93 35.5947Z" fill="#F5F5F5"/>
<path d="M179.322 32.9451C179.669 32.9521 179.974 33.2013 180.04 33.5556C180.114 33.9607 179.846 34.35 179.441 34.4243L169.065 36.3286C168.66 36.4029 168.27 36.1338 168.196 35.7287C168.122 35.3239 168.39 34.9356 168.795 34.8611L173.984 33.9089C175.713 33.5916 177.443 33.274 179.172 32.9568L179.322 32.9451Z" fill="#F5F5F5"/>
<path d="M170.39 40.7991C173.933 39.2654 177.476 37.7317 181.02 36.198L170.39 40.7991Z" fill="#F5F5F5"/>
<path d="M180.724 35.5124C181.102 35.3488 181.54 35.523 181.704 35.901C181.867 36.2789 181.694 36.7177 181.317 36.8813C179.545 37.6481 177.773 38.4145 176.002 39.1812C174.23 39.9481 172.457 40.7155 170.686 41.4823C170.308 41.6457 169.869 41.4716 169.705 41.0937C169.542 40.7159 169.716 40.277 170.094 40.1134C171.866 39.3466 173.637 38.5803 175.409 37.8135C177.18 37.0467 178.952 36.2792 180.724 35.5124Z" fill="#F5F5F5"/>
<path d="M172.992 45.5583C176.282 43.1466 179.571 40.7348 182.861 38.323L172.992 45.5583Z" fill="#F5F5F5"/>
<path d="M182.42 37.7218C182.752 37.4786 183.218 37.5498 183.462 37.8814C183.705 38.2134 183.634 38.6804 183.302 38.924C181.657 40.1298 180.012 41.3365 178.368 42.5423C176.723 43.7481 175.078 44.9537 173.433 46.1595C173.101 46.403 172.634 46.3308 172.391 45.9986C172.147 45.6667 172.219 45.2009 172.55 44.9573C174.195 43.7515 175.84 42.5448 177.485 41.3389C179.13 40.133 180.775 38.9277 182.42 37.7218Z" fill="#F5F5F5"/>
<path d="M176.674 49.5573C179.307 46.4477 181.942 43.3374 184.575 40.2278L176.674 49.5573Z" fill="#F5F5F5"/>
<path d="M184.007 39.7456C184.273 39.4318 184.743 39.3927 185.057 39.6587C185.372 39.9249 185.41 40.3963 185.144 40.7106L177.243 50.0395L177.134 50.1439C176.861 50.3585 176.466 50.3593 176.191 50.1263C175.877 49.8601 175.838 49.3897 176.104 49.0756L180.055 44.4112C181.372 42.8562 182.69 41.3004 184.007 39.7456Z" fill="#F5F5F5"/>
<path d="M181.211 52.6356C182.988 49.0711 184.765 45.5066 186.542 41.9414L181.211 52.6356Z" fill="#F5F5F5"/>
<path d="M185.876 41.6081C186.059 41.2396 186.506 41.0899 186.875 41.2735C187.243 41.4572 187.393 41.9041 187.209 42.2726C185.432 45.8376 183.655 49.4023 181.878 52.9668C181.694 53.3354 181.248 53.4851 180.879 53.3014C180.511 53.1177 180.361 52.6709 180.545 52.3023C182.322 48.7379 184.098 45.1733 185.876 41.6081Z" fill="#F5F5F5"/>
<path d="M186.352 54.5377L188.954 43.6533L186.352 54.5377Z" fill="#F5F5F5"/>
<path d="M189.127 42.9278C189.528 43.0236 189.775 43.4266 189.679 43.8271L187.077 54.7115C186.982 55.1119 186.579 55.3591 186.178 55.2633C185.778 55.1675 185.531 54.7645 185.626 54.364L188.228 43.4796C188.324 43.0792 188.727 42.8321 189.127 42.9278Z" fill="#F5F5F5"/>
<path d="M191.065 55.1742V45.2736C191.065 44.8617 191.399 44.5281 191.81 44.5281C192.222 44.5281 192.556 44.8617 192.556 45.2736V55.1742C192.556 55.586 192.222 55.9197 191.81 55.9197C191.399 55.9197 191.065 55.586 191.065 55.1742Z" fill="#F5F5F5"/>
<path d="M197.236 54.5395C196.644 51.927 196.052 49.3139 195.459 46.7014L197.236 54.5395Z" fill="#F5F5F5"/>
<path d="M195.293 45.9745C195.645 45.8948 195.995 46.0766 196.139 46.3925L196.186 46.5357L197.963 54.3747C198.054 54.7763 197.802 55.1759 197.401 55.2669C196.999 55.3577 196.6 55.106 196.508 54.7046L194.732 46.8668L194.713 46.7165C194.706 46.3699 194.942 46.0545 195.293 45.9745Z" fill="#F5F5F5"/>
<path d="M202.377 52.6351C201.488 50.8529 200.6 49.0706 199.712 47.2883L202.377 52.6351Z" fill="#F5F5F5"/>
<path d="M203.045 52.3031C203.228 52.6716 203.078 53.1196 202.71 53.3034C202.342 53.4871 201.894 53.3371 201.71 52.9688L203.045 52.3031ZM199.379 46.6208C199.702 46.4604 200.085 46.5555 200.299 46.8286L200.38 46.9566L203.045 52.3031L202.377 52.6354L201.71 52.9688L199.044 47.6211L198.991 47.4802C198.901 47.145 199.057 46.7816 199.379 46.6208Z" fill="#F5F5F5"/>
<path d="M206.943 49.5564C206.001 48.4354 205.06 47.3137 204.118 46.1926L206.943 49.5564Z" fill="#F5F5F5"/>
<path d="M203.64 45.6225C203.916 45.3908 204.31 45.393 204.581 45.6084L204.689 45.7141L206.102 47.3953C206.573 47.956 207.043 48.5172 207.514 49.0777C207.779 49.393 207.738 49.8636 207.423 50.1284C207.107 50.3929 206.637 50.3521 206.372 50.0368L203.548 46.6721L203.463 46.5476C203.297 46.2427 203.364 45.8542 203.64 45.6225Z" fill="#F5F5F5"/>
<path d="M206.947 42.8938C208.163 43.7824 209.38 44.6711 210.596 45.5591L206.947 42.8938Z" fill="#F5F5F5"/>
<path d="M206.344 42.4531C206.557 42.1622 206.941 42.0703 207.257 42.2148L207.387 42.2911L211.036 44.9561C211.368 45.199 211.441 45.6661 211.198 45.9987C210.955 46.331 210.489 46.4033 210.156 46.1607L206.506 43.4957L206.395 43.3947C206.161 43.1381 206.132 42.7442 206.344 42.4531Z" fill="#F5F5F5"/>
<path d="M207.548 38.2915C209.452 39.1273 211.356 39.9625 213.26 40.7984L207.548 38.2915Z" fill="#F5F5F5"/>
<path d="M207.704 37.562L207.847 37.6078L213.559 40.1155C213.936 40.2811 214.109 40.7211 213.943 41.0982C213.777 41.475 213.337 41.6461 212.96 41.4809L207.249 38.9743L207.117 38.8992C206.834 38.6991 206.72 38.3216 206.865 37.9917C207.01 37.6616 207.365 37.489 207.704 37.562Z" fill="#F5F5F5"/>
<path d="M206.725 34.168C209.369 34.644 212.014 35.12 214.658 35.596L206.725 34.168Z" fill="#F5F5F5"/>
<path d="M206.857 33.4334L210.823 34.1472C212.145 34.3852 213.468 34.623 214.79 34.861L214.935 34.9033C215.257 35.0318 215.455 35.3726 215.391 35.7274C215.318 36.1326 214.931 36.4013 214.526 36.3285L206.592 34.9009L206.448 34.8598C206.125 34.7313 205.927 34.3893 205.991 34.0345C206.055 33.6802 206.359 33.43 206.706 33.4216L206.857 33.4334Z" fill="#F5F5F5"/>
<path d="M205.044 30.6769C208.323 30.5185 211.602 30.3594 214.881 30.2009L205.044 30.6769Z" fill="#F5F5F5"/>
<path d="M214.996 29.4638C215.339 29.5169 215.609 29.805 215.627 30.1647C215.644 30.5246 215.403 30.8372 215.067 30.9231L214.918 30.9455C213.278 31.0247 211.638 31.1044 209.998 31.1838C208.359 31.2632 206.72 31.3429 205.08 31.4221L204.929 31.4139C204.586 31.3607 204.317 31.0729 204.3 30.713C204.28 30.3018 204.597 29.9524 205.008 29.9323L209.927 29.6939C211.566 29.6146 213.205 29.536 214.845 29.4568L214.996 29.4638Z" fill="#F5F5F5"/>
<path d="M203.488 28.1374C206.946 27.0797 210.405 26.022 213.864 24.9644L203.488 28.1374Z" fill="#F5F5F5"/>
<path d="M213.794 24.2213C214.14 24.1885 214.472 24.4017 214.577 24.7461C214.698 25.14 214.476 25.5567 214.082 25.6771L208.894 27.2644C207.165 27.7932 205.435 28.3217 203.706 28.8505L203.558 28.8799C203.213 28.913 202.88 28.6999 202.775 28.3551C202.655 27.9614 202.876 27.5446 203.269 27.4241L208.458 25.838C210.188 25.3092 211.917 24.7806 213.646 24.2519L213.794 24.2213Z" fill="#F5F5F5"/>
<path d="M201.774 25.7899C205.053 23.8859 208.332 21.9818 211.611 20.0784L201.774 25.7899Z" fill="#F5F5F5"/>
<path d="M211.237 19.433C211.593 19.2263 212.049 19.3471 212.256 19.703C212.463 20.0591 212.342 20.5153 211.986 20.7221C208.707 22.6254 205.428 24.5296 202.149 26.4337C201.793 26.6405 201.336 26.5197 201.13 26.1637C200.923 25.8076 201.044 25.3515 201.4 25.1446C204.679 23.2407 207.958 21.3364 211.237 19.433Z" fill="#F5F5F5"/>
<path d="M199.967 23.7904C202.77 21.1462 205.572 18.5014 208.376 15.8572L199.967 23.7904Z" fill="#F5F5F5"/>
<path d="M207.864 15.3142C208.164 15.0316 208.636 15.0451 208.919 15.3447C209.201 15.6442 209.187 16.1164 208.888 16.399C207.487 17.7211 206.084 19.0438 204.683 20.366C203.282 21.6881 201.88 23.01 200.479 24.3319C200.179 24.6145 199.707 24.601 199.424 24.3014C199.142 24.0018 199.155 23.5297 199.455 23.2471C200.856 21.9252 202.258 20.6033 203.659 19.2812C205.061 17.959 206.463 16.6363 207.864 15.3142Z" fill="#F5F5F5"/>
<path d="M198.123 22.0127C200.185 18.8502 202.248 15.6871 204.31 12.5247L198.123 22.0127Z" fill="#F5F5F5"/>
<path d="M203.685 12.1173C203.91 11.7724 204.372 11.6754 204.717 11.9001C205.062 12.1251 205.16 12.5871 204.935 12.9321L198.747 22.4206C198.522 22.7652 198.06 22.8625 197.715 22.6378C197.371 22.4129 197.274 21.9507 197.498 21.6058L203.685 12.1173Z" fill="#F5F5F5"/>
<path d="M195.902 20.2671C197.107 16.9139 198.314 13.5613 199.519 10.208L195.902 20.2671Z" fill="#F5F5F5"/>
<path d="M198.817 9.95494C198.956 9.56743 199.384 9.36606 199.772 9.50529C200.159 9.64463 200.361 10.0722 200.221 10.4598C199.618 12.1364 199.015 13.8129 198.412 15.4893C197.809 17.1657 197.207 18.8423 196.604 20.5188C196.465 20.9064 196.037 21.1078 195.65 20.9685C195.262 20.8292 195.061 20.4016 195.2 20.014C195.803 18.3374 196.406 16.6609 197.009 14.9845C197.612 13.3081 198.214 11.6315 198.817 9.95494Z" fill="#F5F5F5"/>
<path d="M193.396 18.6484C193.735 15.4331 194.073 12.2172 194.412 9.00195L193.396 18.6484Z" fill="#F5F5F5"/>
<path d="M194.489 8.26045C194.899 8.30359 195.197 8.67151 195.154 9.0811C194.984 10.6885 194.815 12.2964 194.645 13.904C194.476 15.5116 194.308 17.1194 194.138 18.7269L194.107 18.8748C194.002 19.2054 193.676 19.428 193.318 19.3902C192.908 19.3468 192.611 18.9802 192.654 18.5708L193.163 13.7479C193.332 12.1401 193.5 10.5315 193.67 8.92378C193.713 8.51464 194.08 8.21765 194.489 8.26045Z" fill="#F5F5F5"/>
<path d="M190.191 17.0302C189.841 14.3543 189.493 11.6778 189.144 9.00195L190.191 17.0302Z" fill="#F5F5F5"/>
<path d="M189.047 8.26266C189.405 8.21614 189.735 8.43122 189.848 8.75927L189.883 8.90603L190.931 16.934L190.935 17.0855C190.91 17.4313 190.644 17.7233 190.287 17.7699C189.93 17.8165 189.598 17.6023 189.485 17.2745L189.451 17.1266L188.404 9.09857L188.399 8.94829C188.424 8.60212 188.69 8.30932 189.047 8.26266Z" fill="#F5F5F5"/>
<path d="M186.067 15.9836C185.39 14.0584 184.713 12.1332 184.036 10.208L186.067 15.9836Z" fill="#F5F5F5"/>
<path d="M183.788 9.50487C184.128 9.38532 184.498 9.52647 184.676 9.8242L184.739 9.96039L186.77 15.7366C186.907 16.1251 186.702 16.551 186.314 16.6876C185.925 16.8237 185.5 16.6192 185.364 16.2309C185.026 15.2683 184.687 14.3054 184.348 13.3428L183.333 10.4558L183.296 10.3091C183.249 9.96546 183.449 9.62457 183.788 9.50487Z" fill="#F5F5F5"/>
<path d="M181.627 16.0053L179.298 12.5247L181.627 16.0053Z" fill="#F5F5F5"/>
<path d="M178.884 11.9048C179.183 11.7045 179.575 11.7501 179.822 11.9941L179.918 12.1103L182.246 15.5913L182.318 15.7239C182.449 16.045 182.341 16.4252 182.042 16.6256C181.742 16.826 181.35 16.7804 181.103 16.5364L181.007 16.4201L178.678 12.9392L178.608 12.8065C178.476 12.4853 178.584 12.1053 178.884 11.9048Z" fill="#F5F5F5"/>
<path d="M177.768 18.3681C176.89 17.5415 176.012 16.715 175.134 15.8892L177.768 18.3681Z" fill="#F5F5F5"/>
<path d="M178.28 17.8251C178.58 18.1074 178.594 18.5796 178.312 18.8794C178.029 19.1792 177.557 19.1932 177.257 18.9111L178.28 17.8251ZM174.591 15.3784C174.838 15.1161 175.231 15.0719 175.526 15.254L175.645 15.3455L178.28 17.8251L177.768 18.3675L177.257 18.9111L174.624 16.4327L174.524 16.3176C174.325 16.0343 174.345 15.6407 174.591 15.3784Z" fill="#F5F5F5"/>
<path d="M176.069 22.5057C174.71 21.6966 173.351 20.8875 171.991 20.0784L176.069 22.5057Z" fill="#F5F5F5"/>
<path d="M171.35 19.6961C171.534 19.3865 171.908 19.2593 172.235 19.3732L172.373 19.4366L176.45 21.8645L176.572 21.9537C176.828 22.1872 176.894 22.5763 176.709 22.8859C176.525 23.1955 176.152 23.324 175.824 23.2099L175.687 23.1454L171.609 20.7186L171.488 20.6282C171.232 20.3947 171.166 20.0057 171.35 19.6961Z" fill="#F5F5F5"/>
<path d="M329.048 21.0127C331.004 21.0127 332.9 21.4233 334.736 22.2444C336.595 23.0656 338.117 24.3698 339.3 26.157C340.508 27.9201 341.112 30.2266 341.112 33.0766V51.6252H334.736V34.3083C334.736 31.3618 334.047 29.2243 332.671 27.896C331.294 26.5435 329.519 25.8672 327.345 25.8672C325.92 25.8672 324.543 26.2778 323.215 27.099C321.911 27.896 320.836 29.007 319.991 30.4319C319.145 31.8327 318.723 33.4268 318.723 35.214V51.6252H312.419V21.8822H318.723V27.1714C318.94 26.3503 319.532 25.4566 320.498 24.4906C321.464 23.5245 322.696 22.7033 324.193 22.0271C325.691 21.3508 327.309 21.0127 329.048 21.0127Z" fill="#F5F5F5"/>
<path d="M341.111 33.0769C341.111 30.4051 340.581 28.2107 339.519 26.4941L339.3 26.1572C338.116 24.3699 336.595 23.0653 334.735 22.2441C333.015 21.4745 331.241 21.0654 329.415 21.0173L329.048 21.0126C327.309 21.0126 325.691 21.3507 324.194 22.0269L323.644 22.2876C322.392 22.911 321.343 23.6448 320.498 24.49L320.154 24.8493C319.39 25.6788 318.913 26.4529 318.723 27.1715V21.8825H312.419V51.6253H318.723V35.2136C318.723 33.5384 319.094 32.0328 319.837 30.6971L319.991 30.4318C320.783 29.0959 321.778 28.0365 322.974 27.2525L323.216 27.0987C324.544 26.2778 325.92 25.8673 327.345 25.8672L327.749 25.8754C329.739 25.9547 331.38 26.6282 332.67 27.8959C334.047 29.2242 334.735 31.3619 334.735 34.3084V51.6253H341.111V33.0769ZM319.611 24.132C319.696 24.0428 319.781 23.9521 319.87 23.8631L320.278 23.4745C321.261 22.5898 322.449 21.8407 323.827 21.218L324.133 21.0854C325.665 20.443 327.307 20.125 329.048 20.125C331.131 20.1251 333.149 20.5625 335.093 21.4317H335.094C337.114 22.3234 338.762 23.74 340.032 25.6547L340.275 26.028C341.447 27.9224 342 30.2924 342 33.0769V52.5129H333.848V34.3084C333.848 31.4749 333.183 29.6238 332.054 28.5346L332.048 28.5287C330.859 27.3608 329.317 26.7547 327.345 26.7547C326.1 26.7548 324.884 27.1107 323.682 27.8536L323.678 27.856C322.508 28.5712 321.533 29.5738 320.755 30.885L320.751 30.8908C319.997 32.1405 319.611 33.5728 319.611 35.2136V52.5129H311.532V20.9938H319.611V24.132Z" fill="#F5F5F5"/>
<path d="M289.817 52.4946C286.749 52.4946 284.02 51.8063 281.629 50.4297C279.262 49.053 277.402 47.1933 276.05 44.8506C274.697 42.4837 274.021 39.8149 274.021 36.8442C274.021 33.8736 274.697 31.1927 276.05 28.8017C277.402 26.4106 279.262 24.5147 281.629 23.1139C284.02 21.7131 286.749 21.0127 289.817 21.0127C292.86 21.0127 295.553 21.7131 297.895 23.1139C300.262 24.5147 302.11 26.4106 303.438 28.8017C304.767 31.1927 305.431 33.8736 305.431 36.8442C305.431 39.8149 304.767 42.4837 303.438 44.8506C302.11 47.1933 300.262 49.053 297.895 50.4297C295.553 51.8063 292.86 52.4946 289.817 52.4946ZM289.817 47.0967C291.749 47.0967 293.427 46.6499 294.852 45.7563C296.301 44.8627 297.424 43.643 298.221 42.0973C299.018 40.5274 299.417 38.7643 299.417 36.808C299.417 34.8517 299.018 33.0886 298.221 31.5188C297.424 29.9489 296.301 28.7051 294.852 27.7873C293.427 26.8695 291.749 26.4106 289.817 26.4106C287.86 26.4106 286.158 26.8695 284.708 27.7873C283.259 28.7051 282.124 29.9489 281.303 31.5188C280.506 33.0886 280.108 34.8517 280.108 36.808C280.108 38.7643 280.506 40.5274 281.303 42.0973C282.124 43.643 283.259 44.8627 284.708 45.7563C286.158 46.6499 287.86 47.0967 289.817 47.0967Z" fill="#F5F5F5"/>
<path d="M305.431 36.8443C305.431 34.0593 304.847 31.5287 303.679 29.2531L303.438 28.8011C302.109 26.4103 300.262 24.5148 297.895 23.1141C295.699 21.8008 293.194 21.1028 290.382 21.0208L289.816 21.0126C286.749 21.0126 284.02 21.7133 281.629 23.1141C279.262 24.5148 277.402 26.4103 276.05 28.8011L275.804 29.2531C274.616 31.5287 274.021 34.0592 274.021 36.8443L274.029 37.3973C274.109 40.1469 274.782 42.6311 276.05 44.85C277.402 47.1927 279.262 49.0524 281.629 50.429C283.87 51.7195 286.409 52.4052 289.245 52.4859L289.816 52.4941C292.86 52.4941 295.552 51.8057 297.895 50.429C300.114 49.1385 301.877 47.424 303.183 45.2844L303.438 44.85C304.683 42.631 305.345 40.147 305.423 37.3973L305.431 36.8443ZM298.529 36.8079C298.529 35.0902 298.201 33.5566 297.562 32.1917L297.43 31.9205C296.703 30.4891 295.687 29.3669 294.376 28.5369L294.372 28.5334C293.109 27.7204 291.603 27.2983 289.816 27.2983C288.118 27.2983 286.664 27.6705 285.428 28.389L285.184 28.5369C283.871 29.3683 282.841 30.4938 282.09 31.9299C281.366 33.3596 280.995 34.9795 280.995 36.8079C280.995 38.6384 281.367 40.2598 282.093 41.6907C282.841 43.0963 283.867 44.1938 285.174 45.0003L285.419 45.1447C286.656 45.8453 288.113 46.2084 289.816 46.2084V47.0971L289.453 47.0913C287.769 47.0424 286.279 46.6514 284.983 45.9184L284.708 45.7564C283.259 44.8628 282.124 43.6427 281.302 42.0969C280.555 40.6251 280.159 38.9833 280.112 37.1719L280.107 36.8079C280.107 34.8518 280.506 33.0887 281.302 31.5189C282.072 30.0471 283.119 28.8615 284.441 27.9628L284.708 27.7867C286.157 26.869 287.86 26.4107 289.816 26.4107L290.176 26.4154C291.957 26.4692 293.516 26.9264 294.852 27.7867C296.301 28.7045 297.424 29.9491 298.221 31.5189C299.018 33.0887 299.417 34.8518 299.417 36.8079L299.412 37.1719C299.365 38.9834 298.969 40.6251 298.221 42.0969C297.424 43.6427 296.301 44.8628 294.852 45.7564C293.427 46.6499 291.749 47.0971 289.816 47.0971V46.2084C291.607 46.2084 293.116 45.7961 294.38 45.0038L294.386 45.0003L294.628 44.8453C295.82 44.0547 296.753 43.0082 297.432 41.6907C298.158 40.2599 298.529 38.6383 298.529 36.8079ZM306.319 36.8443C306.319 39.9524 305.622 42.7737 304.212 45.2856L304.21 45.2879C302.803 47.769 300.843 49.7403 298.343 51.1945L298.345 51.1957C295.85 52.6615 292.998 53.3829 289.816 53.3829C286.612 53.3829 283.727 52.6617 281.186 51.1992L281.183 51.1968C278.684 49.7434 276.712 47.7734 275.281 45.295L275.278 45.2915C273.843 42.7786 273.134 39.9552 273.134 36.8443C273.134 33.7333 273.843 30.8995 275.277 28.3643L275.551 27.8971C276.954 25.5891 278.833 23.7372 281.177 22.3498L281.18 22.3474L281.661 22.0774C284.084 20.7699 286.809 20.125 289.816 20.125C293 20.125 295.852 20.8589 298.347 22.3498L298.811 22.6339C301.092 24.084 302.897 25.9989 304.215 28.3702L304.47 28.8492C305.706 31.2597 306.319 33.9304 306.319 36.8443Z" fill="#F5F5F5"/>
<path d="M260.11 51.6264V21.8834H266.414V51.6264H260.11ZM263.335 11.7034C262.199 11.7034 261.221 11.3049 260.4 10.5079C259.603 9.68671 259.205 8.70856 259.205 7.57342C259.205 6.43829 259.603 5.46014 260.4 4.63897C261.221 3.81781 262.199 3.40723 263.335 3.40723C264.083 3.40723 264.772 3.60044 265.4 3.98687C266.052 4.3733 266.571 4.88049 266.957 5.50844C267.344 6.11224 267.537 6.80057 267.537 7.57342C267.537 8.70856 267.126 9.68671 266.305 10.5079C265.484 11.3049 264.494 11.7034 263.335 11.7034Z" fill="#F5F5F5"/>
<path d="M266.414 21.8823H260.11V51.6263H266.414V21.8823ZM267.537 7.57323C267.537 6.80057 267.344 6.11181 266.958 5.50812C266.571 4.88031 266.052 4.37298 265.4 3.98658C264.851 3.64855 264.255 3.45834 263.613 3.416L263.335 3.40661C262.2 3.40661 261.221 3.817 260.4 4.63816C259.603 5.45931 259.204 6.43813 259.204 7.57323L259.209 7.78338C259.256 8.82925 259.652 9.73724 260.4 10.5071C261.169 11.2543 262.078 11.6509 263.123 11.6976L263.335 11.7023C264.421 11.7022 265.359 11.352 266.149 10.6515L266.305 10.5071C267.075 9.73719 267.484 8.82935 267.532 7.78338L267.537 7.57323ZM267.302 52.5139H259.222V20.9947H267.302V52.5139ZM268.425 7.57323C268.425 8.9497 267.916 10.152 266.933 11.1352L266.924 11.1446C265.935 12.1047 264.721 12.591 263.335 12.591C261.967 12.591 260.767 12.1008 259.782 11.1446L259.772 11.1352L259.763 11.1258C258.807 10.1406 258.317 8.94119 258.317 7.57323C258.317 6.2051 258.807 5.0048 259.763 4.01945L259.772 4.01006L260.398 4.63699L259.773 4.01006C260.756 3.027 261.958 2.51904 263.335 2.51904C264.24 2.51909 265.084 2.75496 265.851 3.22346L265.852 3.22229C266.624 3.67997 267.25 4.28797 267.714 5.04203H267.713C268.192 5.79684 268.425 6.64968 268.425 7.57323Z" fill="#F5F5F5"/>
<path d="M239.115 21.0127C241.071 21.0127 242.967 21.4233 244.803 22.2444C246.663 23.0656 248.184 24.3698 249.368 26.157C250.575 27.9201 251.179 30.2266 251.179 33.0766V51.6252H244.803V34.3083C244.803 31.3618 244.115 29.2243 242.738 27.896C241.361 26.5435 239.586 25.8672 237.412 25.8672C235.987 25.8672 234.611 26.2778 233.282 27.099C231.978 27.896 230.903 29.007 230.058 30.4319C229.213 31.8327 228.79 33.4268 228.79 35.214V51.6252H222.487V21.8822H228.79V27.1714C229.008 26.3503 229.599 25.4566 230.565 24.4906C231.531 23.5245 232.763 22.7033 234.261 22.0271C235.758 21.3508 237.376 21.0127 239.115 21.0127Z" fill="#F5F5F5"/>
<path d="M251.179 33.0769C251.179 30.4051 250.648 28.2107 249.587 26.4941L249.367 26.1572C248.184 24.3699 246.662 23.0653 244.802 22.2441C243.082 21.4745 241.308 21.0654 239.482 21.0173L239.115 21.0126C237.377 21.0126 235.758 21.3508 234.261 22.0269L233.711 22.2876C232.459 22.911 231.41 23.6448 230.565 24.49L230.221 24.8493C229.457 25.6788 228.98 26.4529 228.79 27.1715V21.8825H222.486V51.6253H228.79V35.2136C228.79 33.5384 229.161 32.0328 229.904 30.6971L230.058 30.4318C230.85 29.0959 231.845 28.0365 233.041 27.2525L233.283 27.0987C234.611 26.2778 235.987 25.8673 237.412 25.8672L237.816 25.8754C239.806 25.9547 241.447 26.6282 242.737 27.8959C244.114 29.2242 244.802 31.3619 244.802 34.3084V51.6253H251.179V33.0769ZM229.679 24.132C229.763 24.0428 229.848 23.9521 229.937 23.8631L230.345 23.4745C231.328 22.5898 232.516 21.8407 233.894 21.218L234.2 21.0854C235.732 20.4431 237.374 20.125 239.115 20.125C241.198 20.1251 243.216 20.5625 245.16 21.4317H245.162C247.181 22.3234 248.829 23.74 250.1 25.6547L250.343 26.028C251.514 27.9224 252.067 30.2924 252.067 33.0769V52.5129H243.915V34.3084C243.915 31.4749 243.25 29.6238 242.121 28.5346L242.115 28.5287C240.926 27.3608 239.384 26.7547 237.412 26.7547C236.168 26.7548 234.951 27.1107 233.749 27.8536L233.745 27.856C232.575 28.5712 231.6 29.5739 230.822 30.885L230.819 30.8908C230.064 32.1405 229.679 33.5728 229.679 35.2136V52.5129H221.599V20.9938H229.679V24.132Z" fill="#F5F5F5"/>
<path d="M136.131 20.124C137.677 20.124 139.114 20.281 140.443 20.595C141.795 20.909 142.954 21.2833 143.92 21.718C144.911 22.1528 145.611 22.5392 146.022 22.8773L143.522 26.8624C143.039 26.4277 142.169 25.9446 140.913 25.4133C139.658 24.8578 138.257 24.58 136.711 24.58C135.02 24.58 133.583 24.9182 132.4 25.5944C131.217 26.2465 130.625 27.2005 130.625 28.4564C130.625 29.7123 131.229 30.7146 132.436 31.4633C133.668 32.1879 135.31 32.7917 137.363 33.2747C139.005 33.6611 140.539 34.1804 141.964 34.8325C143.413 35.4846 144.585 36.3903 145.478 37.5496C146.372 38.6847 146.819 40.2063 146.819 42.1143C146.819 43.8532 146.456 45.3386 145.732 46.5703C145.007 47.7779 144.029 48.7561 142.797 49.5048C141.566 50.2293 140.189 50.7607 138.667 51.0988C137.146 51.4369 135.6 51.606 134.03 51.606C132.195 51.606 130.54 51.4128 129.067 51.0263C127.594 50.6641 126.35 50.2293 125.336 49.7221C124.345 49.1908 123.621 48.7319 123.162 48.3455L125.662 43.8532C126.29 44.457 127.316 45.0971 128.741 45.7733C130.19 46.4496 131.832 46.7877 133.668 46.7877C135.697 46.7877 137.339 46.365 138.595 45.5197C139.851 44.6502 140.479 43.5272 140.479 42.1505C140.479 41.112 140.177 40.2788 139.573 39.6508C138.969 39.0229 138.16 38.5157 137.146 38.1292C136.131 37.7428 135.02 37.4047 133.813 37.1149C132.654 36.8492 131.518 36.499 130.407 36.0643C129.321 35.6295 128.318 35.074 127.401 34.3978C126.507 33.6974 125.794 32.8521 125.263 31.8618C124.732 30.8475 124.466 29.664 124.466 28.3115C124.466 26.5967 125.009 25.1355 126.096 23.9279C127.183 22.6962 128.608 21.7543 130.371 21.1022C132.134 20.4501 134.054 20.124 136.131 20.124Z" fill="#F5F5F5"/>
<path d="M139.591 42.1501C139.591 41.4013 139.405 40.8509 139.08 40.436L138.933 40.2669C138.439 39.7538 137.751 39.31 136.83 38.9591C135.856 38.588 134.782 38.2609 133.606 37.9788C132.407 37.7035 131.233 37.3411 130.084 36.8916L130.078 36.8893C128.923 36.4273 127.854 35.835 126.874 35.113L126.853 35.0965C125.864 34.3211 125.07 33.3808 124.48 32.2812L124.477 32.2742C123.868 31.1116 123.579 29.7818 123.579 28.3118C123.579 26.391 124.194 24.7142 125.436 23.3339C126.632 21.9804 128.185 20.9642 130.063 20.2697L130.772 20.0267C132.443 19.4976 134.231 19.2366 136.131 19.2366C137.735 19.2366 139.24 19.3998 140.642 19.7308L140.643 19.7297C142.032 20.0521 143.246 20.4421 144.277 20.9049L144.99 21.2336C145.661 21.5591 146.204 21.8769 146.586 22.1916L147.188 22.6882L143.713 28.2285L142.928 27.5229C142.562 27.1934 141.81 26.7569 140.568 26.2314L140.554 26.2256C139.425 25.7262 138.149 25.4683 136.711 25.4683C135.138 25.4683 133.861 25.7821 132.84 26.3653L132.829 26.3723C132.343 26.6398 132.023 26.9434 131.823 27.2669C131.624 27.5871 131.513 27.9736 131.513 28.4562C131.513 29.357 131.914 30.0924 132.894 30.7033C134.021 31.3646 135.568 31.9402 137.566 32.4103L138.198 32.5665C139.658 32.9458 141.037 33.4312 142.334 34.0246C143.9 34.73 145.186 35.7207 146.175 37.0008C147.226 38.3362 147.706 40.0719 147.706 42.1149C147.706 43.9777 147.317 45.6262 146.497 47.0211L146.493 47.027C145.693 48.361 144.611 49.4421 143.259 50.2638L143.247 50.2708L143.246 50.2697C142.092 50.9481 140.828 51.4658 139.455 51.8229L138.86 51.9661C137.275 52.3184 135.664 52.4944 134.03 52.4944C132.138 52.4944 130.411 52.2944 128.855 51.8875C127.337 51.5144 126.027 51.0608 124.938 50.5162L124.926 50.5103L124.916 50.5045C123.91 49.9647 123.12 49.4717 122.59 49.0252L122.03 48.5532L125.446 42.4142L126.276 43.2137C126.8 43.7172 127.723 44.3071 129.116 44.9689L129.619 45.1849C130.813 45.6569 132.159 45.8999 133.668 45.8999V46.7875L132.988 46.7722C131.536 46.7035 130.211 46.4116 129.014 45.8964L128.741 45.7731C127.316 45.0969 126.289 44.4574 125.661 43.8536L123.162 48.3454C123.621 48.7318 124.345 49.1913 125.335 49.7226C126.349 50.2297 127.594 50.6646 129.067 51.0269C130.356 51.365 131.784 51.5552 133.35 51.5975L134.03 51.6057C135.403 51.6057 136.759 51.4771 138.095 51.2183L138.667 51.0985C139.999 50.8026 141.219 50.359 142.329 49.7672L142.797 49.5054C143.875 48.8503 144.759 48.0193 145.448 47.0129L145.731 46.5703C146.365 45.4925 146.723 44.2208 146.802 42.7547L146.818 42.1149C146.818 40.2069 146.371 38.6854 145.478 37.5502C144.696 36.5359 143.702 35.7155 142.495 35.0895L141.964 34.8324C140.717 34.2618 139.387 33.7931 137.973 33.4259L137.363 33.2744C135.31 32.7914 133.668 32.1874 132.437 31.4629C131.304 30.7609 130.703 29.8365 130.632 28.6887L130.625 28.4562C130.625 27.2789 131.145 26.3674 132.185 25.7207L132.4 25.5951C133.584 24.9189 135.021 24.5796 136.711 24.5796L137.284 24.5937C138.605 24.6544 139.814 24.9272 140.913 25.4131C142.169 25.9445 143.039 26.4283 143.522 26.8631L146.021 22.8772C145.713 22.6237 145.243 22.3432 144.609 22.0355L143.92 21.7185C143.074 21.3381 142.081 21.0038 140.94 20.7158L140.442 20.5949C139.28 20.3202 138.034 20.1655 136.705 20.1312L136.131 20.1241C134.054 20.1241 132.134 20.4501 130.371 21.1021L130.044 21.2277C128.431 21.873 127.115 22.7733 126.096 23.928L125.898 24.1569C124.943 25.3188 124.466 26.7041 124.466 28.3118L124.478 28.8108C124.536 29.9573 124.798 30.9745 125.263 31.8621C125.795 32.8521 126.507 33.6977 127.4 34.398C128.318 35.0742 129.321 35.6292 130.408 36.0639C131.519 36.4986 132.653 36.849 133.813 37.1147C135.02 37.4045 136.131 37.7426 137.146 38.129C138.16 38.5155 138.97 39.0226 139.574 39.6506C140.177 40.2784 140.479 41.1119 140.479 42.1501L140.472 42.406C140.398 43.6668 139.772 44.7045 138.594 45.5195C137.339 46.3647 135.697 46.7874 133.668 46.7875V45.8999C135.572 45.8999 137.021 45.5029 138.087 44.7893C139.134 44.0644 139.591 43.1999 139.591 42.1501Z" fill="#F5F5F5"/>
<path d="M106.979 20.124C108.525 20.124 109.962 20.281 111.29 20.595C112.643 20.909 113.802 21.2833 114.768 21.718C115.759 22.1528 116.459 22.5392 116.869 22.8773L114.37 26.8624C113.887 26.4277 113.017 25.9446 111.761 25.4133C110.505 24.8578 109.105 24.58 107.559 24.58C105.868 24.58 104.431 24.9182 103.248 25.5944C102.064 26.2465 101.473 27.2005 101.473 28.4564C101.473 29.7123 102.076 30.7146 103.284 31.4633C104.516 32.1879 106.158 32.7917 108.211 33.2747C109.853 33.6611 111.387 34.1804 112.812 34.8325C114.261 35.4846 115.432 36.3903 116.326 37.5496C117.22 38.6847 117.667 40.2063 117.667 42.1143C117.667 43.8532 117.304 45.3386 116.58 46.5703C115.855 47.7779 114.877 48.7561 113.645 49.5048C112.413 50.2293 111.037 50.7607 109.515 51.0988C107.994 51.4369 106.448 51.606 104.878 51.606C103.043 51.606 101.388 51.4128 99.9149 51.0263C98.4416 50.6641 97.1978 50.2293 96.1834 49.7221C95.1932 49.1908 94.4687 48.7319 94.0098 48.3455L96.5095 43.8532C97.1374 44.457 98.1639 45.0971 99.5888 45.7733C101.038 46.4496 102.68 46.7877 104.516 46.7877C106.545 46.7877 108.187 46.365 109.443 45.5197C110.699 44.6502 111.327 43.5272 111.327 42.1505C111.327 41.112 111.025 40.2788 110.421 39.6508C109.817 39.0229 109.008 38.5157 107.994 38.1292C106.979 37.7428 105.868 37.4047 104.661 37.1149C103.501 36.8492 102.366 36.499 101.255 36.0643C100.168 35.6295 99.1662 35.074 98.2484 34.3978C97.3548 33.6974 96.6423 32.8521 96.111 31.8618C95.5796 30.8475 95.314 29.664 95.314 28.3115C95.314 26.5967 95.8574 25.1355 96.9442 23.9279C98.031 22.6962 99.456 21.7543 101.219 21.1022C102.982 20.4501 104.902 20.124 106.979 20.124Z" fill="#F5F5F5"/>
<path d="M110.439 42.1501C110.439 41.4013 110.252 40.8509 109.928 40.436L109.78 40.2669C109.287 39.7538 108.599 39.31 107.677 38.9591C106.703 38.588 105.629 38.2609 104.454 37.9788C103.255 37.7035 102.08 37.3411 100.932 36.8916L100.926 36.8893C99.7708 36.4273 98.7017 35.835 97.7217 35.113L97.7006 35.0965C96.7113 34.3211 95.9179 33.3808 95.3279 32.2812L95.3244 32.2742C94.7154 31.1116 94.4263 29.7818 94.4262 28.3118C94.4262 26.391 95.0414 24.7142 96.2835 23.3339C97.4799 21.9804 99.0328 20.9642 100.91 20.2697L101.619 20.0267C103.291 19.4976 105.079 19.2366 106.979 19.2366C108.583 19.2366 110.087 19.3998 111.49 19.7308L111.491 19.7297C112.88 20.0521 114.094 20.4421 115.124 20.9049L115.838 21.2336C116.509 21.5591 117.052 21.8769 117.434 22.1916L118.036 22.6882L114.561 28.2285L113.775 27.5229C113.409 27.1934 112.658 26.7569 111.416 26.2314L111.402 26.2256C110.272 25.7261 108.996 25.4683 107.559 25.4683C105.986 25.4683 104.709 25.7821 103.688 26.3653L103.676 26.3723C103.191 26.6398 102.871 26.9434 102.67 27.2669C102.472 27.5871 102.36 27.9736 102.36 28.4562C102.36 29.357 102.762 30.0924 103.742 30.7033C104.869 31.3646 106.415 31.9402 108.414 32.4103L109.045 32.5665C110.505 32.9458 111.885 33.4312 113.181 34.0246C114.747 34.73 116.034 35.7207 117.023 37.0008C118.074 38.3362 118.554 40.0719 118.554 42.1149C118.554 43.9777 118.165 45.6262 117.344 47.0211L117.341 47.027C116.541 48.361 115.458 49.4421 114.106 50.2638L114.095 50.2708L114.094 50.2697C112.94 50.9481 111.675 51.4658 110.303 51.8229L109.707 51.9661C108.122 52.3184 106.512 52.4944 104.877 52.4944C102.986 52.4944 101.259 52.2944 99.7023 51.8875C98.1851 51.5144 96.875 51.0608 95.7858 50.5162L95.774 50.5103L95.7634 50.5045C94.7575 49.9647 93.968 49.4717 93.4377 49.0252L92.8777 48.5532L96.2941 42.4142L97.1241 43.2137C97.6478 43.7172 98.5703 44.3071 99.9641 44.9689L100.467 45.1849C101.661 45.6569 103.007 45.8999 104.516 45.8999V46.7875L103.836 46.7722C102.384 46.7035 101.059 46.4116 99.862 45.8964L99.5884 45.7731C98.1636 45.0969 97.1369 44.4574 96.509 43.8536L94.0094 48.3454C94.4683 48.7318 95.1925 49.1913 96.1826 49.7226C97.197 50.2297 98.4415 50.6646 99.9148 51.0269C101.204 51.365 102.631 51.5552 104.198 51.5975L104.877 51.6057C106.251 51.6057 107.607 51.4771 108.943 51.2183L109.515 51.0985C110.846 50.8026 112.067 50.359 113.177 49.7672L113.645 49.5054C114.723 48.8503 115.607 48.0193 116.296 47.0129L116.579 46.5703C117.213 45.4925 117.57 44.2208 117.65 42.7547L117.666 42.1149C117.666 40.2069 117.219 38.6854 116.325 37.5502C115.544 36.5359 114.549 35.7155 113.342 35.0895L112.812 34.8324C111.565 34.2618 110.234 33.7931 108.821 33.4259L108.21 33.2744C106.158 32.7914 104.516 32.1874 103.284 31.4629C102.152 30.7609 101.55 29.8365 101.48 28.6887L101.473 28.4562C101.473 27.2789 101.993 26.3674 103.033 25.7207L103.248 25.5951C104.431 24.9189 105.868 24.5796 107.559 24.5796L108.132 24.5937C109.452 24.6544 110.662 24.9272 111.761 25.4131C113.017 25.9445 113.886 26.4283 114.369 26.8631L116.869 22.8772C116.561 22.6237 116.09 22.3432 115.457 22.0355L114.767 21.7185C113.922 21.3381 112.929 21.0038 111.788 20.7158L111.29 20.5949C110.128 20.3202 108.882 20.1655 107.553 20.1312L106.979 20.1241C104.902 20.1241 102.982 20.4501 101.219 21.1021L100.892 21.2277C99.2785 21.873 97.9622 22.7733 96.9433 23.928L96.7461 24.1569C95.7908 25.3188 95.3138 26.7041 95.3138 28.3118L95.3255 28.8108C95.3836 29.9573 95.646 30.9745 96.111 31.8621C96.6422 32.8521 97.3542 33.6977 98.2477 34.398C99.1655 35.0742 100.169 35.6292 101.256 36.0639C102.366 36.4986 103.501 36.849 104.66 37.1147C105.868 37.4045 106.979 37.7426 107.993 38.129C109.008 38.5155 109.817 39.0226 110.421 39.6506C111.025 40.2784 111.326 41.1119 111.326 42.1501L111.319 42.406C111.246 43.6668 110.619 44.7045 109.442 45.5195C108.186 46.3647 106.544 46.7874 104.516 46.7875V45.8999C106.42 45.8999 107.869 45.5029 108.935 44.7893C109.982 44.0644 110.439 43.1999 110.439 42.1501Z" fill="#F5F5F5"/>
<path d="M81.2394 50.7365V44.9401C81.0462 45.5439 80.4786 46.3771 79.5367 47.4398C78.6189 48.5025 77.3509 49.4685 75.7328 50.338C74.1388 51.1833 72.2549 51.606 70.0812 51.606C67.3279 51.606 64.8282 50.9539 62.5821 49.6497C60.3601 48.3455 58.5849 46.522 57.2566 44.1793C55.9524 41.8124 55.3003 39.047 55.3003 35.8831C55.3003 32.7192 55.9524 29.9659 57.2566 27.6232C58.5849 25.2563 60.3601 23.4208 62.5821 22.1166C64.8282 20.7882 67.3279 20.124 70.0812 20.124C72.2307 20.124 74.0904 20.5105 75.6603 21.2833C77.2543 22.0562 78.5223 22.9498 79.4642 23.9642C80.4303 24.9785 80.9979 25.848 81.1669 26.5726V20.9935H87.3981V50.7365H81.2394ZM61.5315 35.8831C61.5315 38.0326 62.0024 39.8923 62.9444 41.4622C63.8863 43.0321 65.106 44.2517 66.6034 45.1212C68.1249 45.9665 69.7431 46.3892 71.4579 46.3892C73.2934 46.3892 74.9358 45.9544 76.3849 45.085C77.834 44.2155 78.9812 42.9958 79.8265 41.426C80.6718 39.8319 81.0945 37.9843 81.0945 35.8831C81.0945 33.7819 80.6718 31.9464 79.8265 30.3765C78.9812 28.7825 77.834 27.5507 76.3849 26.6813C74.9358 25.7876 73.2934 25.3408 71.4579 25.3408C69.7431 25.3408 68.1249 25.7756 66.6034 26.645C65.106 27.5145 63.8863 28.7342 62.9444 30.304C62.0024 31.8739 61.5315 33.7336 61.5315 35.8831Z" fill="#F5F5F5"/>
<path d="M87.3981 20.9941H81.1664V26.5731C80.9973 25.8485 80.4301 24.9788 79.464 23.9644C78.6398 23.0768 77.566 22.2815 76.2425 21.5788L75.6602 21.2829C74.1884 20.5584 72.4616 20.1741 70.4803 20.1288L70.0812 20.1241C67.3279 20.1241 64.8276 20.7881 62.5815 22.1165L62.1706 22.3677C60.1399 23.6527 58.5014 25.4049 57.2561 27.6238C55.9521 29.9664 55.3002 32.7195 55.3002 35.8831L55.3084 36.4713C55.3847 39.391 56.0333 41.9609 57.2561 44.18C58.5844 46.5224 60.3598 48.3456 62.5815 49.6498C64.6873 50.8725 67.0165 51.5223 69.5681 51.5987L70.0812 51.6057C72.1189 51.6057 73.9018 51.2344 75.4301 50.4916L75.733 50.3378C77.3509 49.4684 78.6191 48.5028 79.5368 47.4403C80.4784 46.3779 81.0458 45.5445 81.2391 44.9407V50.7369H87.3981V20.9941ZM80.206 35.8831C80.206 33.9027 79.8091 32.2164 79.0449 30.7972L79.0414 30.7925C78.2665 29.3314 77.2288 28.2236 75.9278 27.443L75.9184 27.4372C74.6206 26.6369 73.1423 26.2292 71.4583 26.2291C69.9016 26.2291 68.4344 26.6215 67.044 27.416L67.0428 27.4149C65.6852 28.2044 64.5743 29.3141 63.7062 30.7608C62.8606 32.1703 62.4195 33.8663 62.4195 35.8831C62.4195 37.9 62.8605 39.596 63.7062 41.0054C64.5724 42.449 65.681 43.5563 67.0346 44.3455L67.5605 44.6167C68.7955 45.2079 70.0921 45.5019 71.4583 45.5019V46.3895L71.1378 46.3848C69.5415 46.3353 68.0302 45.9139 66.6037 45.1215C65.1997 44.3063 64.0395 43.183 63.1239 41.7521L62.9443 41.4621C62.0612 39.9902 61.5917 38.2637 61.5366 36.2823L61.5319 35.8831C61.5319 33.8682 61.9452 32.1079 62.7729 30.6023L62.9443 30.3041C63.8862 28.7343 65.1063 27.5142 66.6037 26.6447C68.1251 25.7754 69.7437 25.3415 71.4583 25.3415L71.8 25.3462C73.4979 25.3986 75.0261 25.8435 76.3845 26.6811C77.8336 27.5506 78.9815 28.7829 79.8268 30.3769C80.6719 31.9467 81.0947 33.7821 81.0947 35.8831L81.0889 36.2741C81.0394 38.2141 80.6191 39.9314 79.8268 41.4257C78.9815 42.9956 77.8336 44.2157 76.3845 45.0851L76.111 45.2425C74.7299 46.0067 73.1791 46.3894 71.4583 46.3895V45.5019C73.147 45.5018 74.6287 45.1027 75.9278 44.3232C77.2307 43.5415 78.2678 42.4448 79.0414 41.0101L79.1811 40.7354C79.8566 39.3497 80.206 37.7393 80.206 35.8831ZM88.2857 51.6245H80.3516V47.8547C80.3019 47.9119 80.2526 47.9706 80.2013 48.0284C79.1952 49.1908 77.8351 50.2172 76.1533 51.1208L76.1486 51.1232L76.1474 51.122C74.4017 52.0476 72.37 52.4944 70.0812 52.4944C67.3624 52.4944 64.8587 51.8889 62.5874 50.67L62.1365 50.4176L62.133 50.4152C59.7703 49.0284 57.8853 47.0899 56.4836 44.6179L56.4789 44.6085C55.0909 42.0896 54.4126 39.1712 54.4126 35.8831C54.4126 32.5956 55.0903 29.6884 56.4801 27.1918L56.4824 27.1883L56.7501 26.7269C58.1196 24.4511 59.9135 22.6535 62.1295 21.3522L62.5815 21.0951C64.8538 19.8531 67.3596 19.2366 70.0812 19.2366C72.3341 19.2366 74.3321 19.6411 76.0476 20.4846L76.6581 20.7945C78.0461 21.5314 79.2021 22.3803 80.1062 23.3515H80.1074C80.166 23.4131 80.2223 23.4758 80.2788 23.537V20.1054H88.2857V51.6245Z" fill="#F5F5F5"/>
<path d="M48.2488 50.7369H41.9089V0.887451H48.2488V50.7369Z" fill="#F5F5F5"/>
<path d="M48.2488 0.887565H41.909V50.7368H48.2488V0.887565ZM49.1364 51.6244H41.0215V0H49.1364V51.6244Z" fill="#F5F5F5"/>
<path d="M17.1175 66.6405C14.7748 66.6405 12.6494 66.399 10.7414 65.916C8.85757 65.4329 7.20317 64.7446 5.7782 63.851C4.3774 62.9815 3.25433 61.955 2.40902 60.7716L6.53899 56.8228C6.99787 57.4507 7.61375 58.1149 8.38661 58.8153C9.18362 59.5399 10.2584 60.1557 11.6109 60.6629C12.9634 61.1701 14.7265 61.4237 16.9001 61.4237C19.0255 61.4237 20.8248 60.9648 22.2981 60.0471C23.7713 59.1534 24.8944 57.9338 25.6673 56.388C26.4401 54.8423 26.8266 53.1034 26.8266 51.1712V50.1931H32.9853V51.5698C32.9853 54.8544 32.2728 57.6077 30.8478 59.8297C29.447 62.0758 27.5511 63.7664 25.1601 64.9016C22.769 66.0609 20.0882 66.6405 17.1175 66.6405ZM26.8266 50.7365V44.9401C26.6333 45.5439 26.0658 46.3771 25.1239 47.4398C24.2061 48.5025 22.9381 49.4685 21.3199 50.338C19.7259 51.1833 17.8421 51.606 15.6684 51.606C12.9151 51.606 10.4154 50.9539 8.16924 49.6497C5.94727 48.3455 4.17211 46.522 2.84375 44.1793C1.53955 41.8124 0.887451 39.047 0.887451 35.8831C0.887451 32.7192 1.53955 29.9659 2.84375 27.6232C4.17211 25.2563 5.94727 23.4208 8.16924 22.1166C10.4154 20.7882 12.9151 20.124 15.6684 20.124C17.8179 20.124 19.6776 20.5105 21.2475 21.2833C22.8415 22.0562 24.1095 22.9498 25.0514 23.9642C26.0175 24.9785 26.585 25.848 26.7541 26.5726V20.9935H32.9853V50.7365H26.8266ZM7.11863 35.8831C7.11863 38.0326 7.5896 39.8923 8.53152 41.4622C9.47344 43.0321 10.6931 44.2517 12.1905 45.1212C13.7121 45.9665 15.3303 46.3892 17.0451 46.3892C18.8806 46.3892 20.5229 45.9544 21.972 45.085C23.4211 44.2155 24.5684 42.9958 25.4137 41.426C26.259 39.8319 26.6816 37.9843 26.6816 35.8831C26.6816 33.7819 26.259 31.9464 25.4137 30.3765C24.5684 28.7825 23.4211 27.5507 21.972 26.6813C20.5229 25.7876 18.8806 25.3408 17.0451 25.3408C15.3303 25.3408 13.7121 25.7756 12.1905 26.645C10.6931 27.5145 9.47344 28.7342 8.53152 30.304C7.5896 31.8739 7.11863 33.7336 7.11863 35.8831Z" fill="#F5F5F5"/>
<path d="M32.9855 20.9941H26.7538V26.5731C26.5847 25.8485 26.0175 24.9788 25.0514 23.9644C24.2272 23.0768 23.1534 22.2815 21.8299 21.5788L21.2476 21.2829C19.7758 20.5584 18.049 20.1741 16.0678 20.1288L15.6686 20.1241C12.9153 20.1241 10.415 20.7881 8.16889 22.1165L7.75798 22.3677C5.7273 23.6527 4.0888 25.4049 2.8435 27.6238C1.53952 29.9664 0.887581 32.7195 0.887565 35.8831L0.895784 36.4713C0.972144 39.391 1.62074 41.9609 2.8435 44.18C4.17176 46.5224 5.94717 48.3456 8.16889 49.6498C10.2747 50.8725 12.6039 51.5223 15.1555 51.5987L15.6686 51.6057C17.7063 51.6057 19.4892 51.2344 21.0175 50.4916L21.3204 50.3378C22.9383 49.4684 24.2065 48.5028 25.1242 47.4403C26.0658 46.3779 26.6332 45.5445 26.8265 44.9407V51.1713C26.8265 53.1035 26.4406 54.843 25.6678 56.3887L25.5187 56.674C24.7531 58.085 23.6795 59.2092 22.2983 60.047C20.8251 60.9647 19.0255 61.4241 16.9001 61.4241V60.5354C18.8968 60.5354 20.5249 60.1054 21.8287 59.2932L21.8381 59.2874C23.1675 58.4809 24.1748 57.3869 24.873 55.9907L25.0009 55.7242C25.5382 54.5603 25.8482 53.2691 25.9214 51.8405L25.939 51.1713V47.8547C25.8893 47.9119 25.84 47.9706 25.7887 48.0284C24.7826 49.1908 23.4224 50.2172 21.7407 51.1208L21.736 51.1232L21.7348 51.122C19.9891 52.0476 17.9575 52.4944 15.6686 52.4944C12.7685 52.4944 10.1136 51.8051 7.72393 50.4176L7.72041 50.4152C5.5053 49.1151 3.71043 47.3297 2.33984 45.0746L2.07099 44.6179L2.06629 44.6085C0.678299 42.0896 0 39.1712 0 35.8831C1.56963e-05 32.5956 0.677736 29.6884 2.06746 27.1918L2.06981 27.1883L2.33749 26.7269C3.70705 24.4511 5.50091 22.6535 7.71689 21.3522L8.16889 21.0951C10.4412 19.8531 12.947 19.2366 15.6686 19.2366C17.9215 19.2366 19.9195 19.6411 21.635 20.4846L22.2455 20.7945C23.6335 21.5314 24.7895 22.3803 25.6936 23.3515C25.7522 23.4131 25.8097 23.4758 25.8662 23.537V20.1054H33.8731V51.6245C33.8652 55.0095 33.1244 57.9165 31.6001 60.2982L31.6013 60.2994C30.1119 62.6876 28.0884 64.4919 25.5469 65.6999L25.548 65.7011C23.0227 66.9255 20.2062 67.5291 17.1173 67.5291C14.7148 67.529 12.515 67.2805 10.524 66.7765H10.5205C8.56313 66.2746 6.82285 65.5538 5.31013 64.6057L4.76538 64.2512C3.52403 63.4039 2.49387 62.4174 1.68708 61.2879L1.23977 60.6622L6.65791 55.4812L7.25549 56.2995C7.66913 56.8655 8.24027 57.4853 8.98249 58.158L9.25604 58.3904C9.92132 58.9258 10.8014 59.4118 11.9223 59.8321L12.3989 59.993C13.5574 60.3459 15.0491 60.5354 16.9001 60.5354V61.4241L16.1041 61.4124C14.5509 61.3648 13.2285 61.1746 12.1371 60.8418L11.6111 60.6633C10.2588 60.1562 9.18424 59.5399 8.38726 58.8154C7.61449 58.1151 6.99821 57.451 6.53934 56.8231L2.40911 60.7713C3.25442 61.9548 4.37776 62.9814 5.77857 63.8508C7.20342 64.7444 8.85751 65.4329 10.7412 65.9159C12.4108 66.3386 14.2472 66.5769 16.2497 66.6297L17.1173 66.6403C20.088 66.6403 22.7696 66.0609 25.1606 64.9016C27.5514 63.7665 29.4469 62.0757 30.8476 59.8298C32.2726 57.6078 32.9855 54.854 32.9855 51.5693V20.9941ZM25.7934 35.8831C25.7934 33.9027 25.3965 32.2164 24.6323 30.7972L24.6288 30.7925C23.8539 29.3314 22.8162 28.2236 21.5152 27.443L21.5058 27.4372C20.208 26.6369 18.7297 26.2292 17.0457 26.2291C15.489 26.2291 14.0218 26.6215 12.6314 27.416L12.6302 27.4149C11.2727 28.2044 10.1617 29.3141 9.29361 30.7608C8.44796 32.1703 8.00689 33.8663 8.00687 35.8831C8.00687 37.9 8.44794 39.596 9.29361 41.0054C10.1598 42.449 11.2684 43.5563 12.622 44.3455L13.1479 44.6167C14.3829 45.2079 15.6795 45.5019 17.0457 45.5019V46.3895L16.7252 46.3848C15.1289 46.3353 13.6176 45.9139 12.1911 45.1215C10.7871 44.3063 9.62693 43.183 8.71129 41.7521L8.53166 41.4621C7.64858 39.9902 7.17912 38.2637 7.124 36.2823L7.11931 35.8831C7.11932 33.8682 7.53258 32.1079 8.36026 30.6023L8.53166 30.3041C9.47358 28.7343 10.6937 27.5142 12.1911 26.6447C13.7125 25.7754 15.3311 25.3415 17.0457 25.3415L17.3874 25.3462C19.0853 25.3986 20.6135 25.8435 21.9719 26.6811C23.4211 27.5506 24.5689 28.7829 25.4142 30.3769C26.2593 31.9467 26.6821 33.7821 26.6821 35.8831L26.6763 36.2741C26.6268 38.2141 26.2065 39.9314 25.4142 41.4257C24.5689 42.9956 23.4211 44.2157 21.9719 45.0852L21.6984 45.2425C20.3173 46.0067 18.7665 46.3894 17.0457 46.3895V45.5019C18.7344 45.5018 20.2161 45.1027 21.5152 44.3232C22.8181 43.5415 23.8552 42.4448 24.6288 41.0101L24.7685 40.7354C25.444 39.3497 25.7934 37.7393 25.7934 35.8831Z" fill="#F5F5F5"/>
<path d="M203.767 87.2395L208.24 76.5505H211.049L202.104 96.5237H199.262L202.266 89.8068L196.808 76.5505H199.666L203.767 87.2395Z" fill="#F5F5F5"/>
<path d="M199.938 76.155L203.783 86.1765L207.874 76.3981L207.977 76.155H211.661L202.466 96.6853L202.36 96.9201H198.652L201.834 89.8008L196.218 76.155H199.938ZM196.808 76.5507L202.266 89.8066L199.262 96.5244H202.104L211.049 76.5507H208.24L203.768 87.2402L199.666 76.5507H196.808Z" fill="#F5F5F5"/>
<path d="M183.79 96.5245H180.997V76.5513H183.839V79.0379C183.936 78.7042 184.205 78.3113 184.646 77.8592C185.088 77.4071 185.68 77.0142 186.422 76.6805C187.176 76.336 188.037 76.1638 189.006 76.1638C190.233 76.1638 191.32 76.4598 192.267 77.0519C193.225 77.6331 193.973 78.4512 194.512 79.5061C195.061 80.5503 195.335 81.7774 195.335 83.1875C195.335 84.5977 195.055 85.8302 194.496 86.8851C193.936 87.9292 193.172 88.7419 192.203 89.3232C191.245 89.9045 190.147 90.1951 188.909 90.1951C187.908 90.1951 187.03 90.0067 186.277 89.63C185.534 89.2532 184.948 88.828 184.517 88.3544C184.097 87.8808 183.855 87.504 183.79 87.2242V96.5245ZM192.558 83.1875C192.558 82.2295 192.359 81.4007 191.961 80.701C191.573 80.0013 191.056 79.4577 190.41 79.0702C189.765 78.6827 189.065 78.4889 188.311 78.4889C187.483 78.4889 186.729 78.6881 186.051 79.0863C185.373 79.4738 184.835 80.0228 184.436 80.7333C184.038 81.433 183.839 82.251 183.839 83.1875C183.839 84.124 184.038 84.9475 184.436 85.6579C184.835 86.3576 185.373 86.9012 186.051 87.2887C186.729 87.6763 187.483 87.87 188.311 87.87C189.065 87.87 189.765 87.6816 190.41 87.3049C191.056 86.9174 191.573 86.3738 191.961 85.6741C192.359 84.9744 192.558 84.1456 192.558 83.1875Z" fill="#F5F5F5"/>
<path d="M195.335 83.1879C195.335 81.7778 195.06 80.5503 194.511 79.5062C194.04 78.5832 193.409 77.8418 192.616 77.2814L192.268 77.0513C191.439 76.5333 190.502 76.2426 189.459 76.1778L189.006 76.1637C188.037 76.1637 187.176 76.3358 186.422 76.6803L186.151 76.8083C185.534 77.1132 185.032 77.4634 184.646 77.859L184.348 78.1866C184.081 78.5035 183.912 78.7874 183.839 79.0377V76.5511H180.997V96.5249H183.79V87.2242C183.855 87.5041 184.097 87.8812 184.517 88.3548C184.947 88.8283 185.534 89.2531 186.277 89.6298C186.936 89.9594 187.69 90.1451 188.539 90.1863L188.909 90.1945C190.147 90.1945 191.245 89.9047 192.203 89.3234C193.051 88.8147 193.742 88.1285 194.276 87.2653L194.496 86.8849C194.986 85.962 195.261 84.9029 195.322 83.708L195.335 83.1879ZM192.162 83.1879C192.162 82.2855 191.974 81.5258 191.616 80.8962L191.614 80.8927C191.258 80.2503 190.789 79.7593 190.207 79.4099C189.623 79.0593 188.993 78.8851 188.311 78.8851C187.549 78.8851 186.865 79.0669 186.251 79.4275L186.247 79.4299C185.634 79.7802 185.146 80.2761 184.781 80.9267L184.78 80.9291C184.421 81.5599 184.235 82.3089 184.235 83.1879C184.235 84.0656 184.42 84.8197 184.78 85.462L184.923 85.6956C185.269 86.2231 185.71 86.6376 186.247 86.9448L186.481 87.0681C187.034 87.3375 187.642 87.4743 188.311 87.4743V87.8699L188.004 87.8606C187.396 87.8242 186.831 87.6793 186.308 87.425L186.051 87.2888C185.458 86.9497 184.971 86.491 184.592 85.9128L184.436 85.6581C184.087 85.0364 183.891 84.3279 183.848 83.5331L183.839 83.1879C183.839 82.3684 183.991 81.6389 184.296 81.0007L184.436 80.733C184.784 80.1114 185.241 79.6141 185.803 79.2397L186.051 79.0859C186.729 78.6878 187.483 78.4883 188.311 78.4883L188.592 78.4977C189.239 78.5401 189.845 78.7316 190.41 79.0706C191.056 79.4581 191.573 80.0017 191.96 80.7013C192.358 81.401 192.558 82.23 192.558 83.1879L192.548 83.5401C192.505 84.3503 192.309 85.0622 191.96 85.6745C191.573 86.3739 191.056 86.9178 190.41 87.3052L190.166 87.4367C189.589 87.7254 188.971 87.8699 188.311 87.8699V87.4743C188.91 87.4743 189.468 87.3445 189.99 87.0833L190.211 86.9624C190.791 86.6131 191.259 86.1231 191.614 85.482L191.616 85.4785L191.743 85.2366C192.019 84.6573 192.162 83.9776 192.162 83.1879ZM184.235 77.7228C184.277 77.6772 184.318 77.629 184.363 77.5831L184.552 77.4C185.009 76.9827 185.582 76.6247 186.26 76.3199C187.073 75.9488 187.991 75.7681 189.006 75.7681C190.297 75.7682 191.456 76.0805 192.471 76.7132H192.472C193.495 77.334 194.293 78.2074 194.862 79.3218L195.067 79.7468C195.512 80.7586 195.731 81.9087 195.731 83.1879C195.731 84.6508 195.44 85.949 194.845 87.0704V87.0716C194.253 88.1755 193.439 89.0428 192.406 89.6627L192.405 89.6615C191.379 90.2833 190.21 90.5902 188.909 90.5902C187.858 90.5902 186.918 90.3931 186.1 89.9844L186.098 89.9832C185.325 89.5909 184.695 89.1383 184.224 88.6202L184.221 88.6166C184.209 88.6028 184.198 88.5881 184.186 88.5744V96.9205H180.601V76.1555H184.235V77.7228Z" fill="#F5F5F5"/>
<path d="M174.449 89.8076V87.2242C174.363 87.4933 174.11 87.8646 173.69 88.3383C173.281 88.8119 172.716 89.2425 171.995 89.63C171.284 90.0067 170.444 90.1951 169.476 90.1951C168.249 90.1951 167.134 89.9045 166.133 89.3232C165.143 88.7419 164.352 87.9292 163.76 86.8851C163.179 85.8302 162.888 84.5977 162.888 83.1875C162.888 81.7774 163.179 80.5503 163.76 79.5061C164.352 78.4512 165.143 77.6331 166.133 77.0519C167.134 76.4598 168.249 76.1638 169.476 76.1638C170.434 76.1638 171.263 76.336 171.962 76.6805C172.673 77.025 173.238 77.4232 173.658 77.8753C174.088 78.3274 174.341 78.715 174.417 79.0379V76.5513H177.194V89.8076H174.449ZM165.665 83.1875C165.665 84.1456 165.875 84.9744 166.295 85.6741C166.715 86.3738 167.258 86.9174 167.926 87.3049C168.604 87.6816 169.325 87.87 170.089 87.87C170.907 87.87 171.639 87.6763 172.285 87.2887C172.931 86.9012 173.442 86.3576 173.819 85.6579C174.196 84.9475 174.384 84.124 174.384 83.1875C174.384 82.251 174.196 81.433 173.819 80.7333C173.442 80.0228 172.931 79.4738 172.285 79.0863C171.639 78.6881 170.907 78.4889 170.089 78.4889C169.325 78.4889 168.604 78.6827 167.926 79.0702C167.258 79.4577 166.715 80.0013 166.295 80.701C165.875 81.4007 165.665 82.2295 165.665 83.1875Z" fill="#F5F5F5"/>
<path d="M177.194 76.5511H174.417V79.0377C174.342 78.7148 174.088 78.3275 173.657 77.8754C173.29 77.4798 172.812 77.125 172.222 76.8118L171.962 76.6803C171.35 76.3789 170.639 76.2096 169.829 76.1719L169.476 76.1637C168.249 76.1638 167.134 76.4593 166.133 77.0513L165.771 77.2814C164.949 77.8418 164.278 78.5833 163.76 79.5062C163.179 80.5503 162.888 81.7778 162.888 83.1879L162.902 83.708C162.966 84.903 163.252 85.9619 163.76 86.8849C164.352 87.9289 165.143 88.7422 166.133 89.3234C167.009 89.832 167.972 90.1181 169.021 90.1816L169.476 90.1945C170.323 90.1945 171.073 90.051 171.723 89.7625L171.995 89.6298C172.716 89.2423 173.281 88.812 173.69 88.3384C174.11 87.8649 174.363 87.4933 174.449 87.2242V89.8071H177.194V76.5511ZM173.989 83.1879C173.989 82.3052 173.811 81.5534 173.471 80.9209L173.47 80.9185C173.124 80.2673 172.662 79.7731 172.082 79.4252L172.077 79.4228C171.499 79.0662 170.84 78.8851 170.09 78.8851C169.396 78.8851 168.742 79.0576 168.123 79.4111L168.124 79.4122C167.518 79.7642 167.022 80.2588 166.634 80.9044C166.257 81.5326 166.061 82.289 166.061 83.1879C166.062 84.0866 166.258 84.8422 166.634 85.4702C167.021 86.1138 167.515 86.6071 168.118 86.9589L168.352 87.0798C168.903 87.3434 169.481 87.4743 170.09 87.4743V87.8699L169.804 87.8606C169.239 87.8252 168.698 87.684 168.182 87.4367L167.926 87.3052C167.342 86.9662 166.853 86.5073 166.458 85.9293L166.295 85.6745C165.928 85.0622 165.721 84.3504 165.675 83.5401L165.666 83.1879C165.666 82.3496 165.826 81.6095 166.147 80.969L166.295 80.7013C166.715 80.0017 167.259 79.4581 167.926 79.0706C168.604 78.6831 169.325 78.4883 170.09 78.4883L170.392 78.4977C171.089 78.5413 171.72 78.7376 172.285 79.0859C172.931 79.4734 173.443 80.0226 173.819 80.733C174.196 81.4327 174.384 82.2514 174.384 83.1879L174.376 83.5331C174.335 84.3279 174.149 85.0364 173.819 85.6581C173.443 86.3577 172.931 86.9013 172.285 87.2888L172.04 87.425C171.456 87.7218 170.805 87.8699 170.09 87.8699V87.4743C170.842 87.4743 171.503 87.2969 172.082 86.9495C172.663 86.6007 173.126 86.1108 173.471 85.4702C173.812 84.8262 173.988 84.0692 173.989 83.1879ZM177.589 90.2027H174.053V88.5204C174.032 88.545 174.011 88.5705 173.989 88.5955L173.99 88.5967C173.541 89.1162 172.933 89.5748 172.182 89.9785L172.181 89.9797C171.402 90.3923 170.496 90.5902 169.476 90.5902C168.183 90.5901 167 90.2834 165.935 89.665L165.934 89.6639C165.012 89.1231 164.254 88.3943 163.661 87.4825L163.415 87.0798L163.413 87.0763C162.794 85.9538 162.492 84.6532 162.492 83.1879C162.492 81.7227 162.795 80.4264 163.414 79.3136L163.415 79.3125L163.659 78.9062C164.253 77.9862 165.01 77.2521 165.932 76.7108L166.337 76.4901C167.295 76.0081 168.343 75.7681 169.476 75.7681C170.48 75.7681 171.37 75.9487 172.135 76.3246L172.407 76.4619C173.026 76.7903 173.541 77.169 173.944 77.6019L174.021 77.6888V76.1555H177.589V90.2027Z" fill="#F5F5F5"/>
<path d="M155.548 89.8076H152.755V76.5513H155.548V78.8441H155.467C155.521 78.5643 155.72 78.2144 156.065 77.7946C156.409 77.3748 156.883 76.9981 157.486 76.6644C158.088 76.3307 158.81 76.1638 159.649 76.1638C160.263 76.1638 160.801 76.2499 161.264 76.4222C161.737 76.5836 162.071 76.7451 162.265 76.9066L161.119 79.2316C160.968 79.0809 160.704 78.9302 160.327 78.7795C159.951 78.6181 159.482 78.5373 158.923 78.5373C158.212 78.5373 157.604 78.758 157.098 79.1994C156.592 79.6407 156.205 80.1735 155.935 80.7979C155.677 81.4114 155.548 81.9819 155.548 82.5094V89.8076Z" fill="#F5F5F5"/>
<path d="M155.548 82.5093C155.548 81.9819 155.677 81.4112 155.935 80.7976C156.171 80.2512 156.497 79.7751 156.914 79.3688L157.098 79.1998C157.604 78.7584 158.212 78.5376 158.923 78.5376L159.326 78.5529C159.711 78.5832 160.045 78.6584 160.327 78.7794C160.704 78.9301 160.968 79.0808 161.118 79.2314L162.265 76.9069C162.072 76.7454 161.737 76.5835 161.264 76.422C160.917 76.2928 160.527 76.2124 160.095 76.1802L159.65 76.1637C158.81 76.1637 158.089 76.3303 157.486 76.6638L157.265 76.7918C156.766 77.0932 156.365 77.4272 156.064 77.7944L155.834 78.0962C155.706 78.2767 155.611 78.4419 155.548 78.5916V76.5511H152.755V89.8071H155.548V82.5093ZM155.943 77.3354C156.302 76.9546 156.755 76.6158 157.293 76.3175L157.552 76.1872C158.166 75.9037 158.869 75.7681 159.65 75.7681C160.295 75.7681 160.877 75.8593 161.391 76.0487L161.392 76.0475C161.875 76.2122 162.266 76.3929 162.518 76.6028L162.757 76.8024L162.62 77.0818L161.229 79.9018L160.839 79.5109C160.747 79.4186 160.544 79.2924 160.18 79.1469L160.171 79.1434C159.858 79.0094 159.447 78.9333 158.923 78.9332C158.38 78.9332 157.918 79.0782 157.523 79.3653L157.358 79.498C156.897 79.8998 156.545 80.3843 156.299 80.9549C156.057 81.5308 155.943 82.0474 155.943 82.5093V90.2027H152.359V76.1555H155.943V77.3354Z" fill="#F5F5F5"/>
<path d="M139.156 83.7527C139.167 84.5492 139.339 85.2758 139.673 85.9324C140.007 86.5891 140.502 87.1111 141.158 87.4986C141.826 87.8862 142.644 88.0799 143.613 88.0799C144.431 88.0799 145.125 87.9615 145.696 87.7247C146.277 87.4771 146.751 87.1865 147.117 86.8528C147.483 86.5083 147.746 86.2015 147.908 85.9324L149.28 87.6278C148.925 88.1445 148.489 88.5966 147.972 88.9841C147.466 89.3716 146.847 89.6677 146.115 89.8722C145.383 90.0875 144.49 90.1951 143.435 90.1951C142.014 90.1951 140.782 89.8937 139.738 89.2909C138.704 88.6773 137.908 87.8323 137.348 86.7559C136.788 85.6687 136.508 84.4254 136.508 83.0261C136.508 81.7344 136.772 80.5718 137.299 79.5384C137.827 78.4943 138.591 77.6708 139.592 77.068C140.604 76.4652 141.82 76.1638 143.241 76.1638C144.544 76.1638 145.674 76.4383 146.632 76.9873C147.601 77.5255 148.349 78.2898 148.877 79.2801C149.415 80.2704 149.684 81.4545 149.684 82.8323C149.684 82.9184 149.678 83.0745 149.668 83.3006C149.657 83.5158 149.646 83.6665 149.635 83.7527H139.156ZM147.004 81.6375C146.993 81.1961 146.864 80.7117 146.616 80.1843C146.379 79.6568 145.992 79.2047 145.453 78.828C144.915 78.4512 144.189 78.2629 143.274 78.2629C142.326 78.2629 141.562 78.4459 140.981 78.8118C140.41 79.1778 139.991 79.6245 139.721 80.152C139.452 80.6687 139.296 81.1638 139.253 81.6375H147.004Z" fill="#F5F5F5"/>
<path d="M149.683 82.8322C149.683 81.6264 149.478 80.569 149.066 79.66L148.877 79.2796C148.415 78.4132 147.785 77.7195 146.985 77.1992L146.632 76.9867C145.794 76.5064 144.824 76.2366 143.722 76.1766L143.241 76.1637C141.821 76.1637 140.604 76.465 139.593 77.0677C138.592 77.6704 137.827 78.4939 137.3 79.5379L137.114 79.9323C136.711 80.8647 136.508 81.8958 136.508 83.0259L136.521 83.5437C136.583 84.7338 136.858 85.8046 137.348 86.7558C137.908 87.8322 138.705 88.677 139.738 89.2905C140.652 89.8179 141.709 90.1145 142.912 90.1804L143.435 90.1945C144.49 90.1945 145.384 90.087 146.116 89.8717C146.847 89.6671 147.467 89.3716 147.973 88.9841C148.425 88.645 148.815 88.2562 149.143 87.8183L149.281 87.6281L147.908 85.9328C147.747 86.2019 147.483 86.5089 147.117 86.8532C146.751 87.1869 146.276 87.4768 145.695 87.7244L145.476 87.8077C144.949 87.989 144.328 88.0801 143.612 88.0801V87.6845C144.392 87.6845 145.029 87.5704 145.538 87.3604C146.089 87.1257 146.525 86.8565 146.85 86.5597C147.201 86.2293 147.435 85.9524 147.569 85.7285L147.859 85.2436L149.774 87.6081L149.606 87.8523C149.226 88.4043 148.761 88.8857 148.212 89.2976L148.214 89.2987C147.662 89.7215 146.996 90.0354 146.226 90.2509L146.227 90.2521C145.448 90.4811 144.514 90.5902 143.435 90.5902C141.957 90.5902 140.654 90.2766 139.54 89.6333L139.536 89.631C138.439 88.9795 137.59 88.08 136.997 86.9389L136.996 86.9366C136.403 85.7859 136.113 84.4789 136.113 83.0259C136.113 81.6793 136.388 80.4543 136.946 79.3594L137.168 78.9544C137.715 78.0332 138.456 77.2896 139.388 76.7284L139.596 76.611C140.637 76.0442 141.856 75.7681 143.241 75.7681C144.601 75.7681 145.801 76.0549 146.829 76.6439C147.863 77.2188 148.661 78.037 149.223 79.0906C149.799 80.1504 150.08 81.4029 150.08 82.8322C150.08 82.929 150.073 83.094 150.063 83.3194C150.052 83.5342 150.041 83.6996 150.029 83.8019L149.985 84.1483H139.575C139.628 84.7309 139.778 85.2648 140.026 85.7532L140.144 85.968C140.436 86.4545 140.839 86.8496 141.357 87.1561L141.587 87.2782C142.14 87.544 142.811 87.6844 143.612 87.6845V88.0801L143.257 88.0707C142.442 88.0283 141.743 87.8379 141.159 87.499C140.584 87.1599 140.134 86.7173 139.806 86.1723L139.674 85.9328C139.34 85.2762 139.168 84.5492 139.157 83.7526H149.635L149.668 83.3006L149.683 82.8322ZM143.608 78.2711C144.367 78.3123 144.982 78.498 145.453 78.8276C145.992 79.2043 146.379 79.6573 146.616 80.1848C146.863 80.712 146.992 81.1959 147.003 81.637H139.253C139.286 81.282 139.382 80.915 139.541 80.5358L139.722 80.1519C139.991 79.6245 140.411 79.1783 140.981 78.8123C141.563 78.4464 142.327 78.2629 143.274 78.2629L143.608 78.2711ZM143.274 78.6585C142.374 78.6585 141.69 78.8331 141.192 79.1469C140.673 79.4802 140.306 79.8761 140.074 80.3315L140.073 80.335C139.908 80.6521 139.796 80.9546 139.725 81.2414H146.557C146.504 80.9714 146.409 80.6752 146.258 80.3526L146.255 80.3468C146.077 79.9498 145.797 79.5944 145.403 79.2831L145.227 79.1516C144.777 78.8366 144.139 78.6586 143.274 78.6585Z" fill="#F5F5F5"/>
<path d="M128.222 76.1629C129.094 76.1629 129.939 76.3459 130.757 76.7119C131.586 77.0779 132.264 77.6591 132.792 78.4557C133.33 79.2415 133.599 80.2695 133.599 81.5397V89.8067H130.757V82.0886C130.757 80.7754 130.456 79.8228 129.853 79.2307C129.261 78.6279 128.48 78.3265 127.512 78.3265C126.866 78.3265 126.247 78.5095 125.655 78.8755C125.063 79.2307 124.573 79.7259 124.185 80.361C123.809 80.9853 123.62 81.6957 123.62 82.4923V89.8067H120.779V67.5891H123.62V78.9078C123.717 78.5418 123.976 78.1435 124.395 77.713C124.826 77.2824 125.375 76.9164 126.042 76.615C126.71 76.3136 127.436 76.1629 128.222 76.1629Z" fill="#F5F5F5"/>
<path d="M133.599 81.541C133.599 80.4292 133.393 79.5027 132.98 78.762L132.791 78.4568C132.33 77.7598 131.753 77.2274 131.061 76.8601L130.757 76.7122C130.041 76.3922 129.305 76.2122 128.548 76.1721L128.222 76.1639C127.436 76.1639 126.709 76.3145 126.042 76.6159L125.798 76.7321C125.24 77.0099 124.773 77.337 124.396 77.7136C123.976 78.1442 123.718 78.5428 123.621 78.9088V67.59H120.779V89.8073H123.621V82.4931C123.621 81.6967 123.809 80.9865 124.186 80.3622C124.525 79.8066 124.942 79.357 125.437 79.0156L125.654 78.8759C126.246 78.5099 126.866 78.3277 127.512 78.3276L127.866 78.3417C128.673 78.4077 129.335 78.7043 129.853 79.2316C130.456 79.8236 130.757 80.7761 130.757 82.0892V89.8073H133.599V81.541ZM124.017 77.5387C124.048 77.5052 124.079 77.4712 124.112 77.4377L124.115 77.4342L124.297 77.2616C124.735 76.8671 125.265 76.5331 125.88 76.2555L126.153 76.1404C126.798 75.8912 127.489 75.7683 128.222 75.7683C129.15 75.7683 130.05 75.9632 130.916 76.3506H130.918C131.817 76.7479 132.55 77.3797 133.117 78.2325H133.118C133.714 79.1029 133.995 80.2171 133.995 81.541V90.2029H130.361V82.0892C130.361 80.9037 130.105 80.1036 129.666 79.6085L129.576 79.5134L129.571 79.5087C129.064 78.993 128.391 78.7233 127.512 78.7233C126.945 78.7233 126.398 78.8826 125.863 79.2129L125.859 79.2152C125.326 79.5346 124.88 79.9815 124.524 80.5653L124.525 80.5665C124.189 81.1235 124.017 81.7618 124.017 82.4931V90.2029H120.383V67.1943H124.017V77.5387Z" fill="#F5F5F5"/>
<path d="M108.894 76.5505H111.493V71.1091H114.287V76.5505H117.694V78.9563H114.287V85.5118C114.287 86.2868 114.421 86.8573 114.69 87.2233C114.97 87.5893 115.342 87.7723 115.804 87.7723C116.214 87.7723 116.531 87.6969 116.757 87.5462C116.983 87.3955 117.118 87.2933 117.161 87.2395L118.275 89.3062C118.21 89.36 118.038 89.4623 117.758 89.613C117.478 89.7637 117.118 89.8982 116.676 90.0166C116.235 90.1351 115.718 90.1943 115.126 90.1943C114.093 90.1943 113.226 89.8821 112.527 89.2578C111.838 88.6227 111.493 87.6216 111.493 86.2545V78.9563H108.894V76.5505Z" fill="#F5F5F5"/>
<path d="M114.287 85.5127V78.957H117.693V76.5514H114.287V71.1098H111.493V76.5514H108.894V78.957H111.493V86.2547L111.509 86.7502C111.585 87.8662 111.924 88.7021 112.526 89.2579C113.138 89.8041 113.879 90.1123 114.746 90.1807L115.127 90.1948C115.57 90.1947 115.972 90.1616 116.331 90.095L116.676 90.0175C117.007 89.9287 117.293 89.831 117.533 89.724L117.758 89.6136C117.898 89.5383 118.011 89.4746 118.097 89.4234L118.275 89.3072L117.161 87.2397C117.118 87.2936 116.983 87.3966 116.757 87.5473L116.668 87.6002C116.45 87.7155 116.162 87.7727 115.804 87.7727V87.3771C116.172 87.3771 116.402 87.308 116.538 87.2174L116.788 87.0425C116.817 87.0204 116.837 87.0033 116.85 86.992C116.853 86.9891 116.855 86.9865 116.857 86.985L117.226 86.5259L118.623 89.1194L118.777 89.4035L118.528 89.6113C118.477 89.6537 118.398 89.7049 118.299 89.7639L117.945 89.9623C117.63 90.1322 117.238 90.2759 116.778 90.399C116.296 90.5285 115.743 90.5904 115.127 90.5904C114.007 90.5904 113.043 90.2495 112.263 89.5537L112.258 89.549C111.457 88.8102 111.097 87.6809 111.097 86.2547V79.3526H108.498V76.1557H111.097V70.7141H114.683V76.1557H118.089V79.3526H114.683V85.5127C114.683 86.255 114.814 86.7222 115.008 86.9873C115.212 87.252 115.466 87.377 115.804 87.3771V87.7727L115.635 87.7645C115.305 87.7302 115.026 87.5928 114.799 87.3524L114.69 87.2245C114.454 86.9042 114.322 86.4268 114.293 85.7933L114.287 85.5127Z" fill="#F5F5F5"/>
</svg>
