<svg width="1330" height="1330" viewBox="0 0 1330 1330" fill="none" xmlns="http://www.w3.org/2000/svg">
<path d="M50.8711 465.777C114.319 483.875 177.749 501.973 241.197 520.071L50.8711 465.777Z" fill="#E8EC91"/>
<path d="M50.8711 465.777C114.319 483.875 177.749 501.973 241.197 520.071" stroke="#CBBB98" stroke-opacity="0.2" stroke-width="41.605" stroke-miterlimit="10" stroke-linecap="round"/>
<path d="M20.803 612.134C104.602 616.606 188.402 621.079 272.201 625.551L20.803 612.134Z" fill="#E8EC91"/>
<path d="M20.803 612.134C104.602 616.606 188.402 621.079 272.201 625.551" stroke="#CBBB98" stroke-opacity="0.2" stroke-width="41.605" stroke-miterlimit="10" stroke-linecap="round"/>
<path d="M26.9658 762.609C123.455 744.91 219.944 727.193 316.433 709.494L26.9658 762.609Z" fill="#E8EC91"/>
<path d="M26.9658 762.609C123.455 744.91 219.944 727.193 316.433 709.494" stroke="#CBBB98" stroke-opacity="0.2" stroke-width="41.605" stroke-miterlimit="10" stroke-linecap="round"/>
<path d="M67.7073 907.809C166.554 865.026 265.4 822.242 364.247 779.458L67.7073 907.809Z" fill="#E8EC91"/>
<path d="M67.7073 907.809C166.554 865.026 265.4 822.242 364.247 779.458" stroke="#CBBB98" stroke-opacity="0.2" stroke-width="41.605" stroke-miterlimit="10" stroke-linecap="round"/>
<path d="M140.3 1040.57C232.073 973.289 323.83 906.01 415.603 838.732L140.3 1040.57Z" fill="#E8EC91"/>
<path d="M140.3 1040.57C232.073 973.289 323.83 906.01 415.603 838.732" stroke="#CBBB98" stroke-opacity="0.2" stroke-width="41.605" stroke-miterlimit="10" stroke-linecap="round"/>
<path d="M243.008 1152.12C316.475 1065.38 389.96 978.615 463.428 891.868L243.008 1152.12Z" fill="#E8EC91"/>
<path d="M243.008 1152.12C316.475 1065.38 389.96 978.615 463.428 891.868" stroke="#CBBB98" stroke-opacity="0.2" stroke-width="41.605" stroke-miterlimit="10" stroke-linecap="round"/>
<path d="M369.576 1237.98C419.156 1138.54 468.718 1039.1 518.297 939.651L369.576 1237.98Z" fill="#E8EC91"/>
<path d="M369.576 1237.98C419.156 1138.54 468.718 1039.1 518.297 939.651" stroke="#CBBB98" stroke-opacity="0.2" stroke-width="41.605" stroke-miterlimit="10" stroke-linecap="round"/>
<path d="M512.978 1291.09L585.562 987.463L512.978 1291.09Z" fill="#E8EC91"/>
<path d="M512.978 1291.09L585.562 987.463" stroke="#CBBB98" stroke-opacity="0.2" stroke-width="41.605" stroke-miterlimit="10" stroke-linecap="round"/>
<path d="M665.24 1308.8V1032.62V1308.8Z" fill="#E8EC91"/>
<path d="M665.24 1308.8V1032.62" stroke="#CBBB98" stroke-opacity="0.2" stroke-width="41.605" stroke-miterlimit="10" stroke-linecap="round"/>
<path d="M816.598 1291.08C800.077 1218.2 783.556 1145.3 767.018 1072.43L816.598 1291.08Z" fill="#E8EC91"/>
<path d="M816.598 1291.08C800.077 1218.2 783.556 1145.3 767.018 1072.43" stroke="#CBBB98" stroke-opacity="0.2" stroke-width="41.605" stroke-miterlimit="10" stroke-linecap="round"/>
<path d="M960.006 1237.98C935.216 1188.27 910.427 1138.55 885.655 1088.83L960.006 1237.98Z" fill="#E8EC91"/>
<path d="M960.006 1237.98C935.216 1188.27 910.427 1138.55 885.655 1088.83" stroke="#CBBB98" stroke-opacity="0.2" stroke-width="41.605" stroke-miterlimit="10" stroke-linecap="round"/>
<path d="M1087.39 1152.1C1061.13 1120.83 1034.86 1089.54 1008.6 1058.26L1087.39 1152.1Z" fill="#E8EC91"/>
<path d="M1087.39 1152.1C1061.13 1120.83 1034.86 1089.54 1008.6 1058.26" stroke="#CBBB98" stroke-opacity="0.2" stroke-width="41.605" stroke-miterlimit="10" stroke-linecap="round"/>
<path d="M1087.49 966.207C1121.42 990.996 1155.36 1015.79 1189.28 1040.56L1087.49 966.207Z" fill="#E8EC91"/>
<path d="M1087.49 966.207C1121.42 990.996 1155.36 1015.79 1189.28 1040.56" stroke="#CBBB98" stroke-opacity="0.2" stroke-width="41.605" stroke-miterlimit="10" stroke-linecap="round"/>
<path d="M1104.26 837.875C1157.37 861.191 1210.49 884.49 1263.59 907.806L1104.26 837.875Z" fill="#E8EC91"/>
<path d="M1104.26 837.875C1157.37 861.191 1210.49 884.49 1263.59 907.806" stroke="#CBBB98" stroke-opacity="0.2" stroke-width="41.605" stroke-miterlimit="10" stroke-linecap="round"/>
<path d="M1081.3 722.77C1155.06 736.048 1228.84 749.327 1302.61 762.606L1081.3 722.77Z" fill="#E8EC91"/>
<path d="M1081.3 722.77C1155.06 736.048 1228.84 749.327 1302.61 762.606" stroke="#CBBB98" stroke-opacity="0.2" stroke-width="41.605" stroke-miterlimit="10" stroke-linecap="round"/>
<path d="M1034.4 625.412C1125.88 620.992 1217.34 616.554 1308.82 612.134L1034.4 625.412Z" fill="#E8EC91"/>
<path d="M1034.4 625.412C1125.88 620.992 1217.34 616.554 1308.82 612.134" stroke="#CBBB98" stroke-opacity="0.2" stroke-width="41.605" stroke-miterlimit="10" stroke-linecap="round"/>
<path d="M990.99 554.592C1087.48 525.087 1183.97 495.582 1280.46 466.077L990.99 554.592Z" fill="#E8EC91"/>
<path d="M990.99 554.592C1087.48 525.087 1183.97 495.582 1280.46 466.077" stroke="#CBBB98" stroke-opacity="0.2" stroke-width="41.605" stroke-miterlimit="10" stroke-linecap="round"/>
<path d="M943.183 489.08C1034.66 435.964 1126.12 382.848 1217.6 329.75L943.183 489.08Z" fill="#E8EC91"/>
<path d="M943.183 489.08C1034.66 435.964 1126.12 382.848 1217.6 329.75" stroke="#CBBB98" stroke-opacity="0.2" stroke-width="41.605" stroke-miterlimit="10" stroke-linecap="round"/>
<path d="M892.768 433.321C970.968 359.559 1049.15 285.779 1127.35 212.017L892.768 433.321Z" fill="#E8EC91"/>
<path d="M892.768 433.321C970.968 359.559 1049.15 285.779 1127.35 212.017" stroke="#CBBB98" stroke-opacity="0.2" stroke-width="41.605" stroke-miterlimit="10" stroke-linecap="round"/>
<path d="M841.34 383.754C898.876 295.534 956.412 207.297 1013.95 119.077L841.34 383.754Z" fill="#E8EC91"/>
<path d="M841.34 383.754C898.876 295.534 956.412 207.297 1013.95 119.077" stroke="#CBBB98" stroke-opacity="0.2" stroke-width="41.605" stroke-miterlimit="10" stroke-linecap="round"/>
<path d="M779.392 335.06C813.022 241.518 846.67 147.993 880.301 54.4514L779.392 335.06Z" fill="#E8EC91"/>
<path d="M779.392 335.06C813.022 241.518 846.67 147.993 880.301 54.4514" stroke="#CBBB98" stroke-opacity="0.2" stroke-width="41.605" stroke-miterlimit="10" stroke-linecap="round"/>
<path d="M709.488 289.903C718.936 200.209 728.367 110.498 737.814 20.8049L709.488 289.903Z" fill="#E8EC91"/>
<path d="M709.488 289.903C718.936 200.209 728.367 110.498 737.814 20.8049" stroke="#CBBB98" stroke-opacity="0.2" stroke-width="41.605" stroke-miterlimit="10" stroke-linecap="round"/>
<path d="M620.065 244.761C610.322 170.115 600.597 95.4512 590.855 20.8049L620.065 244.761Z" fill="#E8EC91"/>
<path d="M620.065 244.761C610.322 170.115 600.597 95.4512 590.855 20.8049" stroke="#CBBB98" stroke-opacity="0.2" stroke-width="41.605" stroke-miterlimit="10" stroke-linecap="round"/>
<path d="M505.052 215.567C486.174 161.862 467.278 108.157 448.4 54.4514L505.052 215.567Z" fill="#E8EC91"/>
<path d="M505.052 215.567C486.174 161.862 467.278 108.157 448.4 54.4514" stroke="#CBBB98" stroke-opacity="0.2" stroke-width="41.605" stroke-miterlimit="10" stroke-linecap="round"/>
<path d="M381.162 216.173L316.207 119.077L381.162 216.173Z" fill="#E8EC91"/>
<path d="M381.162 216.173L316.207 119.077" stroke="#CBBB98" stroke-opacity="0.2" stroke-width="41.605" stroke-miterlimit="10" stroke-linecap="round"/>
<path d="M273.538 282.049C249.043 258.993 224.548 235.936 200.071 212.898L273.538 282.049Z" fill="#E8EC91"/>
<path d="M273.538 282.049C249.043 258.993 224.548 235.936 200.071 212.898" stroke="#CBBB98" stroke-opacity="0.2" stroke-width="41.605" stroke-miterlimit="10" stroke-linecap="round"/>
<path d="M226.122 397.462C188.209 374.891 150.297 352.32 112.367 329.75L226.122 397.462Z" fill="#E8EC91"/>
<path d="M226.122 397.462C188.209 374.891 150.297 352.32 112.367 329.75" stroke="#CBBB98" stroke-opacity="0.2" stroke-width="41.605" stroke-miterlimit="10" stroke-linecap="round"/>
</svg>
